G04 EAGLE Gerber RS-274X export*
G75*
%MOMM*%
%FSLAX34Y34*%
%LPD*%
%INSoldermask Bottom*%
%IPPOS*%
%AMOC8*
5,1,8,0,0,1.08239X$1,22.5*%
G01*
%ADD10R,7.620000X6.350000*%
%ADD11C,3.454400*%
%ADD12C,2.184400*%
%ADD13C,2.032000*%
%ADD14C,0.251966*%
%ADD15C,0.787400*%
%ADD16C,1.152400*%
%ADD17C,1.270000*%
%ADD18C,1.652400*%

G36*
X824930Y543953D02*
X824930Y543953D01*
X824996Y543955D01*
X825039Y543973D01*
X825086Y543981D01*
X825143Y544015D01*
X825203Y544040D01*
X825238Y544071D01*
X825279Y544096D01*
X825321Y544147D01*
X825369Y544191D01*
X825391Y544233D01*
X825420Y544270D01*
X825441Y544332D01*
X825472Y544391D01*
X825480Y544445D01*
X825492Y544482D01*
X825491Y544522D01*
X825499Y544576D01*
X825499Y557784D01*
X825488Y557849D01*
X825486Y557915D01*
X825468Y557958D01*
X825460Y558005D01*
X825426Y558062D01*
X825401Y558122D01*
X825370Y558157D01*
X825345Y558198D01*
X825294Y558240D01*
X825250Y558288D01*
X825208Y558310D01*
X825171Y558339D01*
X825109Y558360D01*
X825050Y558391D01*
X824996Y558399D01*
X824959Y558411D01*
X824919Y558410D01*
X824865Y558418D01*
X821055Y558418D01*
X820990Y558407D01*
X820924Y558405D01*
X820881Y558387D01*
X820834Y558379D01*
X820777Y558345D01*
X820717Y558320D01*
X820682Y558289D01*
X820641Y558264D01*
X820600Y558213D01*
X820551Y558169D01*
X820529Y558127D01*
X820500Y558090D01*
X820479Y558028D01*
X820448Y557969D01*
X820440Y557915D01*
X820428Y557878D01*
X820429Y557838D01*
X820421Y557784D01*
X820421Y544576D01*
X820432Y544511D01*
X820434Y544445D01*
X820452Y544402D01*
X820460Y544355D01*
X820494Y544298D01*
X820519Y544238D01*
X820550Y544203D01*
X820575Y544162D01*
X820626Y544121D01*
X820670Y544072D01*
X820712Y544050D01*
X820749Y544021D01*
X820811Y544000D01*
X820870Y543969D01*
X820924Y543961D01*
X820961Y543949D01*
X821001Y543950D01*
X821055Y543942D01*
X824865Y543942D01*
X824930Y543953D01*
G37*
G36*
X1211010Y543953D02*
X1211010Y543953D01*
X1211076Y543955D01*
X1211119Y543973D01*
X1211166Y543981D01*
X1211223Y544015D01*
X1211283Y544040D01*
X1211318Y544071D01*
X1211359Y544096D01*
X1211401Y544147D01*
X1211449Y544191D01*
X1211471Y544233D01*
X1211500Y544270D01*
X1211521Y544332D01*
X1211552Y544391D01*
X1211560Y544445D01*
X1211572Y544482D01*
X1211571Y544522D01*
X1211579Y544576D01*
X1211579Y557784D01*
X1211568Y557849D01*
X1211566Y557915D01*
X1211548Y557958D01*
X1211540Y558005D01*
X1211506Y558062D01*
X1211481Y558122D01*
X1211450Y558157D01*
X1211425Y558198D01*
X1211374Y558240D01*
X1211330Y558288D01*
X1211288Y558310D01*
X1211251Y558339D01*
X1211189Y558360D01*
X1211130Y558391D01*
X1211076Y558399D01*
X1211039Y558411D01*
X1210999Y558410D01*
X1210945Y558418D01*
X1207135Y558418D01*
X1207070Y558407D01*
X1207004Y558405D01*
X1206961Y558387D01*
X1206914Y558379D01*
X1206857Y558345D01*
X1206797Y558320D01*
X1206762Y558289D01*
X1206721Y558264D01*
X1206680Y558213D01*
X1206631Y558169D01*
X1206609Y558127D01*
X1206580Y558090D01*
X1206559Y558028D01*
X1206528Y557969D01*
X1206520Y557915D01*
X1206508Y557878D01*
X1206509Y557838D01*
X1206501Y557784D01*
X1206501Y544576D01*
X1206512Y544511D01*
X1206514Y544445D01*
X1206532Y544402D01*
X1206540Y544355D01*
X1206574Y544298D01*
X1206599Y544238D01*
X1206630Y544203D01*
X1206655Y544162D01*
X1206706Y544121D01*
X1206750Y544072D01*
X1206792Y544050D01*
X1206829Y544021D01*
X1206891Y544000D01*
X1206950Y543969D01*
X1207004Y543961D01*
X1207041Y543949D01*
X1207081Y543950D01*
X1207135Y543942D01*
X1210945Y543942D01*
X1211010Y543953D01*
G37*
G36*
X438850Y543953D02*
X438850Y543953D01*
X438916Y543955D01*
X438959Y543973D01*
X439006Y543981D01*
X439063Y544015D01*
X439123Y544040D01*
X439158Y544071D01*
X439199Y544096D01*
X439241Y544147D01*
X439289Y544191D01*
X439311Y544233D01*
X439340Y544270D01*
X439361Y544332D01*
X439392Y544391D01*
X439400Y544445D01*
X439412Y544482D01*
X439411Y544522D01*
X439419Y544576D01*
X439419Y557784D01*
X439408Y557849D01*
X439406Y557915D01*
X439388Y557958D01*
X439380Y558005D01*
X439346Y558062D01*
X439321Y558122D01*
X439290Y558157D01*
X439265Y558198D01*
X439214Y558240D01*
X439170Y558288D01*
X439128Y558310D01*
X439091Y558339D01*
X439029Y558360D01*
X438970Y558391D01*
X438916Y558399D01*
X438879Y558411D01*
X438839Y558410D01*
X438785Y558418D01*
X434975Y558418D01*
X434910Y558407D01*
X434844Y558405D01*
X434801Y558387D01*
X434754Y558379D01*
X434697Y558345D01*
X434637Y558320D01*
X434602Y558289D01*
X434561Y558264D01*
X434520Y558213D01*
X434471Y558169D01*
X434449Y558127D01*
X434420Y558090D01*
X434399Y558028D01*
X434368Y557969D01*
X434360Y557915D01*
X434348Y557878D01*
X434349Y557838D01*
X434341Y557784D01*
X434341Y544576D01*
X434352Y544511D01*
X434354Y544445D01*
X434372Y544402D01*
X434380Y544355D01*
X434414Y544298D01*
X434439Y544238D01*
X434470Y544203D01*
X434495Y544162D01*
X434546Y544121D01*
X434590Y544072D01*
X434632Y544050D01*
X434669Y544021D01*
X434731Y544000D01*
X434790Y543969D01*
X434844Y543961D01*
X434881Y543949D01*
X434921Y543950D01*
X434975Y543942D01*
X438785Y543942D01*
X438850Y543953D01*
G37*
G36*
X52770Y543953D02*
X52770Y543953D01*
X52836Y543955D01*
X52879Y543973D01*
X52926Y543981D01*
X52983Y544015D01*
X53043Y544040D01*
X53078Y544071D01*
X53119Y544096D01*
X53161Y544147D01*
X53209Y544191D01*
X53231Y544233D01*
X53260Y544270D01*
X53281Y544332D01*
X53312Y544391D01*
X53320Y544445D01*
X53332Y544482D01*
X53331Y544522D01*
X53339Y544576D01*
X53339Y557784D01*
X53328Y557849D01*
X53326Y557915D01*
X53308Y557958D01*
X53300Y558005D01*
X53266Y558062D01*
X53241Y558122D01*
X53210Y558157D01*
X53185Y558198D01*
X53134Y558240D01*
X53090Y558288D01*
X53048Y558310D01*
X53011Y558339D01*
X52949Y558360D01*
X52890Y558391D01*
X52836Y558399D01*
X52799Y558411D01*
X52759Y558410D01*
X52705Y558418D01*
X48895Y558418D01*
X48830Y558407D01*
X48764Y558405D01*
X48721Y558387D01*
X48674Y558379D01*
X48617Y558345D01*
X48557Y558320D01*
X48522Y558289D01*
X48481Y558264D01*
X48440Y558213D01*
X48391Y558169D01*
X48369Y558127D01*
X48340Y558090D01*
X48319Y558028D01*
X48288Y557969D01*
X48280Y557915D01*
X48268Y557878D01*
X48269Y557838D01*
X48261Y557784D01*
X48261Y544576D01*
X48272Y544511D01*
X48274Y544445D01*
X48292Y544402D01*
X48300Y544355D01*
X48334Y544298D01*
X48359Y544238D01*
X48390Y544203D01*
X48415Y544162D01*
X48466Y544121D01*
X48510Y544072D01*
X48552Y544050D01*
X48589Y544021D01*
X48651Y544000D01*
X48710Y543969D01*
X48764Y543961D01*
X48801Y543949D01*
X48841Y543950D01*
X48895Y543942D01*
X52705Y543942D01*
X52770Y543953D01*
G37*
G36*
X824930Y930033D02*
X824930Y930033D01*
X824996Y930035D01*
X825039Y930053D01*
X825086Y930061D01*
X825143Y930095D01*
X825203Y930120D01*
X825238Y930151D01*
X825279Y930176D01*
X825321Y930227D01*
X825369Y930271D01*
X825391Y930313D01*
X825420Y930350D01*
X825441Y930412D01*
X825472Y930471D01*
X825480Y930525D01*
X825492Y930562D01*
X825491Y930602D01*
X825499Y930656D01*
X825499Y943864D01*
X825488Y943929D01*
X825486Y943995D01*
X825468Y944038D01*
X825460Y944085D01*
X825426Y944142D01*
X825401Y944202D01*
X825370Y944237D01*
X825345Y944278D01*
X825294Y944320D01*
X825250Y944368D01*
X825208Y944390D01*
X825171Y944419D01*
X825109Y944440D01*
X825050Y944471D01*
X824996Y944479D01*
X824959Y944491D01*
X824919Y944490D01*
X824865Y944498D01*
X821055Y944498D01*
X820990Y944487D01*
X820924Y944485D01*
X820881Y944467D01*
X820834Y944459D01*
X820777Y944425D01*
X820717Y944400D01*
X820682Y944369D01*
X820641Y944344D01*
X820600Y944293D01*
X820551Y944249D01*
X820529Y944207D01*
X820500Y944170D01*
X820479Y944108D01*
X820448Y944049D01*
X820440Y943995D01*
X820428Y943958D01*
X820429Y943918D01*
X820421Y943864D01*
X820421Y930656D01*
X820432Y930591D01*
X820434Y930525D01*
X820452Y930482D01*
X820460Y930435D01*
X820494Y930378D01*
X820519Y930318D01*
X820550Y930283D01*
X820575Y930242D01*
X820626Y930201D01*
X820670Y930152D01*
X820712Y930130D01*
X820749Y930101D01*
X820811Y930080D01*
X820870Y930049D01*
X820924Y930041D01*
X820961Y930029D01*
X821001Y930030D01*
X821055Y930022D01*
X824865Y930022D01*
X824930Y930033D01*
G37*
G36*
X1211010Y930033D02*
X1211010Y930033D01*
X1211076Y930035D01*
X1211119Y930053D01*
X1211166Y930061D01*
X1211223Y930095D01*
X1211283Y930120D01*
X1211318Y930151D01*
X1211359Y930176D01*
X1211401Y930227D01*
X1211449Y930271D01*
X1211471Y930313D01*
X1211500Y930350D01*
X1211521Y930412D01*
X1211552Y930471D01*
X1211560Y930525D01*
X1211572Y930562D01*
X1211571Y930602D01*
X1211579Y930656D01*
X1211579Y943864D01*
X1211568Y943929D01*
X1211566Y943995D01*
X1211548Y944038D01*
X1211540Y944085D01*
X1211506Y944142D01*
X1211481Y944202D01*
X1211450Y944237D01*
X1211425Y944278D01*
X1211374Y944320D01*
X1211330Y944368D01*
X1211288Y944390D01*
X1211251Y944419D01*
X1211189Y944440D01*
X1211130Y944471D01*
X1211076Y944479D01*
X1211039Y944491D01*
X1210999Y944490D01*
X1210945Y944498D01*
X1207135Y944498D01*
X1207070Y944487D01*
X1207004Y944485D01*
X1206961Y944467D01*
X1206914Y944459D01*
X1206857Y944425D01*
X1206797Y944400D01*
X1206762Y944369D01*
X1206721Y944344D01*
X1206680Y944293D01*
X1206631Y944249D01*
X1206609Y944207D01*
X1206580Y944170D01*
X1206559Y944108D01*
X1206528Y944049D01*
X1206520Y943995D01*
X1206508Y943958D01*
X1206509Y943918D01*
X1206501Y943864D01*
X1206501Y930656D01*
X1206512Y930591D01*
X1206514Y930525D01*
X1206532Y930482D01*
X1206540Y930435D01*
X1206574Y930378D01*
X1206599Y930318D01*
X1206630Y930283D01*
X1206655Y930242D01*
X1206706Y930201D01*
X1206750Y930152D01*
X1206792Y930130D01*
X1206829Y930101D01*
X1206891Y930080D01*
X1206950Y930049D01*
X1207004Y930041D01*
X1207041Y930029D01*
X1207081Y930030D01*
X1207135Y930022D01*
X1210945Y930022D01*
X1211010Y930033D01*
G37*
G36*
X438850Y930033D02*
X438850Y930033D01*
X438916Y930035D01*
X438959Y930053D01*
X439006Y930061D01*
X439063Y930095D01*
X439123Y930120D01*
X439158Y930151D01*
X439199Y930176D01*
X439241Y930227D01*
X439289Y930271D01*
X439311Y930313D01*
X439340Y930350D01*
X439361Y930412D01*
X439392Y930471D01*
X439400Y930525D01*
X439412Y930562D01*
X439411Y930602D01*
X439419Y930656D01*
X439419Y943864D01*
X439408Y943929D01*
X439406Y943995D01*
X439388Y944038D01*
X439380Y944085D01*
X439346Y944142D01*
X439321Y944202D01*
X439290Y944237D01*
X439265Y944278D01*
X439214Y944320D01*
X439170Y944368D01*
X439128Y944390D01*
X439091Y944419D01*
X439029Y944440D01*
X438970Y944471D01*
X438916Y944479D01*
X438879Y944491D01*
X438839Y944490D01*
X438785Y944498D01*
X434975Y944498D01*
X434910Y944487D01*
X434844Y944485D01*
X434801Y944467D01*
X434754Y944459D01*
X434697Y944425D01*
X434637Y944400D01*
X434602Y944369D01*
X434561Y944344D01*
X434520Y944293D01*
X434471Y944249D01*
X434449Y944207D01*
X434420Y944170D01*
X434399Y944108D01*
X434368Y944049D01*
X434360Y943995D01*
X434348Y943958D01*
X434349Y943918D01*
X434341Y943864D01*
X434341Y930656D01*
X434352Y930591D01*
X434354Y930525D01*
X434372Y930482D01*
X434380Y930435D01*
X434414Y930378D01*
X434439Y930318D01*
X434470Y930283D01*
X434495Y930242D01*
X434546Y930201D01*
X434590Y930152D01*
X434632Y930130D01*
X434669Y930101D01*
X434731Y930080D01*
X434790Y930049D01*
X434844Y930041D01*
X434881Y930029D01*
X434921Y930030D01*
X434975Y930022D01*
X438785Y930022D01*
X438850Y930033D01*
G37*
G36*
X52770Y930033D02*
X52770Y930033D01*
X52836Y930035D01*
X52879Y930053D01*
X52926Y930061D01*
X52983Y930095D01*
X53043Y930120D01*
X53078Y930151D01*
X53119Y930176D01*
X53161Y930227D01*
X53209Y930271D01*
X53231Y930313D01*
X53260Y930350D01*
X53281Y930412D01*
X53312Y930471D01*
X53320Y930525D01*
X53332Y930562D01*
X53331Y930602D01*
X53339Y930656D01*
X53339Y943864D01*
X53328Y943929D01*
X53326Y943995D01*
X53308Y944038D01*
X53300Y944085D01*
X53266Y944142D01*
X53241Y944202D01*
X53210Y944237D01*
X53185Y944278D01*
X53134Y944320D01*
X53090Y944368D01*
X53048Y944390D01*
X53011Y944419D01*
X52949Y944440D01*
X52890Y944471D01*
X52836Y944479D01*
X52799Y944491D01*
X52759Y944490D01*
X52705Y944498D01*
X48895Y944498D01*
X48830Y944487D01*
X48764Y944485D01*
X48721Y944467D01*
X48674Y944459D01*
X48617Y944425D01*
X48557Y944400D01*
X48522Y944369D01*
X48481Y944344D01*
X48440Y944293D01*
X48391Y944249D01*
X48369Y944207D01*
X48340Y944170D01*
X48319Y944108D01*
X48288Y944049D01*
X48280Y943995D01*
X48268Y943958D01*
X48269Y943918D01*
X48261Y943864D01*
X48261Y930656D01*
X48272Y930591D01*
X48274Y930525D01*
X48292Y930482D01*
X48300Y930435D01*
X48334Y930378D01*
X48359Y930318D01*
X48390Y930283D01*
X48415Y930242D01*
X48466Y930201D01*
X48510Y930152D01*
X48552Y930130D01*
X48589Y930101D01*
X48651Y930080D01*
X48710Y930049D01*
X48764Y930041D01*
X48801Y930029D01*
X48841Y930030D01*
X48895Y930022D01*
X52705Y930022D01*
X52770Y930033D01*
G37*
G36*
X438850Y157873D02*
X438850Y157873D01*
X438916Y157875D01*
X438959Y157893D01*
X439006Y157901D01*
X439063Y157935D01*
X439123Y157960D01*
X439158Y157991D01*
X439199Y158016D01*
X439241Y158067D01*
X439289Y158111D01*
X439311Y158153D01*
X439340Y158190D01*
X439361Y158252D01*
X439392Y158311D01*
X439400Y158365D01*
X439412Y158402D01*
X439411Y158442D01*
X439419Y158496D01*
X439419Y171704D01*
X439408Y171769D01*
X439406Y171835D01*
X439388Y171878D01*
X439380Y171925D01*
X439346Y171982D01*
X439321Y172042D01*
X439290Y172077D01*
X439265Y172118D01*
X439214Y172160D01*
X439170Y172208D01*
X439128Y172230D01*
X439091Y172259D01*
X439029Y172280D01*
X438970Y172311D01*
X438916Y172319D01*
X438879Y172331D01*
X438839Y172330D01*
X438785Y172338D01*
X434975Y172338D01*
X434910Y172327D01*
X434844Y172325D01*
X434801Y172307D01*
X434754Y172299D01*
X434697Y172265D01*
X434637Y172240D01*
X434602Y172209D01*
X434561Y172184D01*
X434520Y172133D01*
X434471Y172089D01*
X434449Y172047D01*
X434420Y172010D01*
X434399Y171948D01*
X434368Y171889D01*
X434360Y171835D01*
X434348Y171798D01*
X434349Y171758D01*
X434341Y171704D01*
X434341Y158496D01*
X434352Y158431D01*
X434354Y158365D01*
X434372Y158322D01*
X434380Y158275D01*
X434414Y158218D01*
X434439Y158158D01*
X434470Y158123D01*
X434495Y158082D01*
X434546Y158041D01*
X434590Y157992D01*
X434632Y157970D01*
X434669Y157941D01*
X434731Y157920D01*
X434790Y157889D01*
X434844Y157881D01*
X434881Y157869D01*
X434921Y157870D01*
X434975Y157862D01*
X438785Y157862D01*
X438850Y157873D01*
G37*
G36*
X824930Y157873D02*
X824930Y157873D01*
X824996Y157875D01*
X825039Y157893D01*
X825086Y157901D01*
X825143Y157935D01*
X825203Y157960D01*
X825238Y157991D01*
X825279Y158016D01*
X825321Y158067D01*
X825369Y158111D01*
X825391Y158153D01*
X825420Y158190D01*
X825441Y158252D01*
X825472Y158311D01*
X825480Y158365D01*
X825492Y158402D01*
X825491Y158442D01*
X825499Y158496D01*
X825499Y171704D01*
X825488Y171769D01*
X825486Y171835D01*
X825468Y171878D01*
X825460Y171925D01*
X825426Y171982D01*
X825401Y172042D01*
X825370Y172077D01*
X825345Y172118D01*
X825294Y172160D01*
X825250Y172208D01*
X825208Y172230D01*
X825171Y172259D01*
X825109Y172280D01*
X825050Y172311D01*
X824996Y172319D01*
X824959Y172331D01*
X824919Y172330D01*
X824865Y172338D01*
X821055Y172338D01*
X820990Y172327D01*
X820924Y172325D01*
X820881Y172307D01*
X820834Y172299D01*
X820777Y172265D01*
X820717Y172240D01*
X820682Y172209D01*
X820641Y172184D01*
X820600Y172133D01*
X820551Y172089D01*
X820529Y172047D01*
X820500Y172010D01*
X820479Y171948D01*
X820448Y171889D01*
X820440Y171835D01*
X820428Y171798D01*
X820429Y171758D01*
X820421Y171704D01*
X820421Y158496D01*
X820432Y158431D01*
X820434Y158365D01*
X820452Y158322D01*
X820460Y158275D01*
X820494Y158218D01*
X820519Y158158D01*
X820550Y158123D01*
X820575Y158082D01*
X820626Y158041D01*
X820670Y157992D01*
X820712Y157970D01*
X820749Y157941D01*
X820811Y157920D01*
X820870Y157889D01*
X820924Y157881D01*
X820961Y157869D01*
X821001Y157870D01*
X821055Y157862D01*
X824865Y157862D01*
X824930Y157873D01*
G37*
G36*
X1211010Y157873D02*
X1211010Y157873D01*
X1211076Y157875D01*
X1211119Y157893D01*
X1211166Y157901D01*
X1211223Y157935D01*
X1211283Y157960D01*
X1211318Y157991D01*
X1211359Y158016D01*
X1211401Y158067D01*
X1211449Y158111D01*
X1211471Y158153D01*
X1211500Y158190D01*
X1211521Y158252D01*
X1211552Y158311D01*
X1211560Y158365D01*
X1211572Y158402D01*
X1211571Y158442D01*
X1211579Y158496D01*
X1211579Y171704D01*
X1211568Y171769D01*
X1211566Y171835D01*
X1211548Y171878D01*
X1211540Y171925D01*
X1211506Y171982D01*
X1211481Y172042D01*
X1211450Y172077D01*
X1211425Y172118D01*
X1211374Y172160D01*
X1211330Y172208D01*
X1211288Y172230D01*
X1211251Y172259D01*
X1211189Y172280D01*
X1211130Y172311D01*
X1211076Y172319D01*
X1211039Y172331D01*
X1210999Y172330D01*
X1210945Y172338D01*
X1207135Y172338D01*
X1207070Y172327D01*
X1207004Y172325D01*
X1206961Y172307D01*
X1206914Y172299D01*
X1206857Y172265D01*
X1206797Y172240D01*
X1206762Y172209D01*
X1206721Y172184D01*
X1206680Y172133D01*
X1206631Y172089D01*
X1206609Y172047D01*
X1206580Y172010D01*
X1206559Y171948D01*
X1206528Y171889D01*
X1206520Y171835D01*
X1206508Y171798D01*
X1206509Y171758D01*
X1206501Y171704D01*
X1206501Y158496D01*
X1206512Y158431D01*
X1206514Y158365D01*
X1206532Y158322D01*
X1206540Y158275D01*
X1206574Y158218D01*
X1206599Y158158D01*
X1206630Y158123D01*
X1206655Y158082D01*
X1206706Y158041D01*
X1206750Y157992D01*
X1206792Y157970D01*
X1206829Y157941D01*
X1206891Y157920D01*
X1206950Y157889D01*
X1207004Y157881D01*
X1207041Y157869D01*
X1207081Y157870D01*
X1207135Y157862D01*
X1210945Y157862D01*
X1211010Y157873D01*
G37*
G36*
X52770Y157873D02*
X52770Y157873D01*
X52836Y157875D01*
X52879Y157893D01*
X52926Y157901D01*
X52983Y157935D01*
X53043Y157960D01*
X53078Y157991D01*
X53119Y158016D01*
X53161Y158067D01*
X53209Y158111D01*
X53231Y158153D01*
X53260Y158190D01*
X53281Y158252D01*
X53312Y158311D01*
X53320Y158365D01*
X53332Y158402D01*
X53331Y158442D01*
X53339Y158496D01*
X53339Y171704D01*
X53328Y171769D01*
X53326Y171835D01*
X53308Y171878D01*
X53300Y171925D01*
X53266Y171982D01*
X53241Y172042D01*
X53210Y172077D01*
X53185Y172118D01*
X53134Y172160D01*
X53090Y172208D01*
X53048Y172230D01*
X53011Y172259D01*
X52949Y172280D01*
X52890Y172311D01*
X52836Y172319D01*
X52799Y172331D01*
X52759Y172330D01*
X52705Y172338D01*
X48895Y172338D01*
X48830Y172327D01*
X48764Y172325D01*
X48721Y172307D01*
X48674Y172299D01*
X48617Y172265D01*
X48557Y172240D01*
X48522Y172209D01*
X48481Y172184D01*
X48440Y172133D01*
X48391Y172089D01*
X48369Y172047D01*
X48340Y172010D01*
X48319Y171948D01*
X48288Y171889D01*
X48280Y171835D01*
X48268Y171798D01*
X48269Y171758D01*
X48261Y171704D01*
X48261Y158496D01*
X48272Y158431D01*
X48274Y158365D01*
X48292Y158322D01*
X48300Y158275D01*
X48334Y158218D01*
X48359Y158158D01*
X48390Y158123D01*
X48415Y158082D01*
X48466Y158041D01*
X48510Y157992D01*
X48552Y157970D01*
X48589Y157941D01*
X48651Y157920D01*
X48710Y157889D01*
X48764Y157881D01*
X48801Y157869D01*
X48841Y157870D01*
X48895Y157862D01*
X52705Y157862D01*
X52770Y157873D01*
G37*
G36*
X1453351Y1100671D02*
X1453351Y1100671D01*
X1453417Y1100673D01*
X1453461Y1100690D01*
X1453507Y1100699D01*
X1453564Y1100732D01*
X1453625Y1100757D01*
X1453660Y1100789D01*
X1453700Y1100813D01*
X1453742Y1100864D01*
X1453790Y1100908D01*
X1453812Y1100950D01*
X1453842Y1100987D01*
X1453863Y1101049D01*
X1453893Y1101108D01*
X1453901Y1101162D01*
X1453914Y1101200D01*
X1453913Y1101239D01*
X1453921Y1101293D01*
X1453921Y1105103D01*
X1453909Y1105168D01*
X1453907Y1105234D01*
X1453889Y1105277D01*
X1453881Y1105324D01*
X1453847Y1105381D01*
X1453823Y1105442D01*
X1453791Y1105477D01*
X1453767Y1105517D01*
X1453716Y1105559D01*
X1453671Y1105607D01*
X1453629Y1105629D01*
X1453593Y1105659D01*
X1453530Y1105680D01*
X1453472Y1105710D01*
X1453417Y1105718D01*
X1453380Y1105731D01*
X1453341Y1105729D01*
X1453286Y1105737D01*
X1450746Y1105737D01*
X1450682Y1105726D01*
X1450616Y1105724D01*
X1450572Y1105706D01*
X1450526Y1105698D01*
X1450469Y1105664D01*
X1450408Y1105640D01*
X1450373Y1105608D01*
X1450332Y1105584D01*
X1450291Y1105533D01*
X1450242Y1105488D01*
X1450221Y1105446D01*
X1450191Y1105409D01*
X1450170Y1105347D01*
X1450140Y1105289D01*
X1450132Y1105234D01*
X1450119Y1105197D01*
X1450119Y1105193D01*
X1450119Y1105192D01*
X1450120Y1105157D01*
X1450112Y1105103D01*
X1450112Y1101293D01*
X1450124Y1101228D01*
X1450126Y1101163D01*
X1450143Y1101119D01*
X1450152Y1101072D01*
X1450185Y1101016D01*
X1450210Y1100955D01*
X1450242Y1100920D01*
X1450266Y1100879D01*
X1450317Y1100838D01*
X1450361Y1100789D01*
X1450404Y1100768D01*
X1450440Y1100738D01*
X1450502Y1100717D01*
X1450561Y1100687D01*
X1450615Y1100679D01*
X1450653Y1100666D01*
X1450692Y1100667D01*
X1450746Y1100659D01*
X1453286Y1100659D01*
X1453351Y1100671D01*
G37*
G36*
X1067271Y1100671D02*
X1067271Y1100671D01*
X1067337Y1100673D01*
X1067381Y1100690D01*
X1067427Y1100699D01*
X1067484Y1100732D01*
X1067545Y1100757D01*
X1067580Y1100789D01*
X1067620Y1100813D01*
X1067662Y1100864D01*
X1067710Y1100908D01*
X1067732Y1100950D01*
X1067762Y1100987D01*
X1067783Y1101049D01*
X1067813Y1101108D01*
X1067821Y1101162D01*
X1067834Y1101200D01*
X1067833Y1101239D01*
X1067841Y1101293D01*
X1067841Y1105103D01*
X1067829Y1105168D01*
X1067827Y1105234D01*
X1067809Y1105277D01*
X1067801Y1105324D01*
X1067767Y1105381D01*
X1067743Y1105442D01*
X1067711Y1105477D01*
X1067687Y1105517D01*
X1067636Y1105559D01*
X1067591Y1105607D01*
X1067549Y1105629D01*
X1067513Y1105659D01*
X1067450Y1105680D01*
X1067392Y1105710D01*
X1067337Y1105718D01*
X1067300Y1105731D01*
X1067261Y1105729D01*
X1067206Y1105737D01*
X1064666Y1105737D01*
X1064602Y1105726D01*
X1064536Y1105724D01*
X1064492Y1105706D01*
X1064446Y1105698D01*
X1064389Y1105664D01*
X1064328Y1105640D01*
X1064293Y1105608D01*
X1064252Y1105584D01*
X1064211Y1105533D01*
X1064162Y1105488D01*
X1064141Y1105446D01*
X1064111Y1105409D01*
X1064090Y1105347D01*
X1064060Y1105289D01*
X1064052Y1105234D01*
X1064039Y1105197D01*
X1064039Y1105193D01*
X1064039Y1105192D01*
X1064040Y1105157D01*
X1064032Y1105103D01*
X1064032Y1101293D01*
X1064044Y1101228D01*
X1064046Y1101163D01*
X1064063Y1101119D01*
X1064072Y1101072D01*
X1064105Y1101016D01*
X1064130Y1100955D01*
X1064162Y1100920D01*
X1064186Y1100879D01*
X1064237Y1100838D01*
X1064281Y1100789D01*
X1064324Y1100768D01*
X1064360Y1100738D01*
X1064422Y1100717D01*
X1064481Y1100687D01*
X1064535Y1100679D01*
X1064573Y1100666D01*
X1064612Y1100667D01*
X1064666Y1100659D01*
X1067206Y1100659D01*
X1067271Y1100671D01*
G37*
G36*
X1453351Y714591D02*
X1453351Y714591D01*
X1453417Y714593D01*
X1453461Y714610D01*
X1453507Y714619D01*
X1453564Y714652D01*
X1453625Y714677D01*
X1453660Y714709D01*
X1453700Y714733D01*
X1453742Y714784D01*
X1453790Y714828D01*
X1453812Y714870D01*
X1453842Y714907D01*
X1453863Y714969D01*
X1453893Y715028D01*
X1453901Y715082D01*
X1453914Y715120D01*
X1453913Y715159D01*
X1453921Y715213D01*
X1453921Y719023D01*
X1453909Y719088D01*
X1453907Y719154D01*
X1453889Y719197D01*
X1453881Y719244D01*
X1453847Y719301D01*
X1453823Y719362D01*
X1453791Y719397D01*
X1453767Y719437D01*
X1453716Y719479D01*
X1453671Y719527D01*
X1453629Y719549D01*
X1453593Y719579D01*
X1453530Y719600D01*
X1453472Y719630D01*
X1453417Y719638D01*
X1453380Y719651D01*
X1453341Y719649D01*
X1453286Y719657D01*
X1450746Y719657D01*
X1450682Y719646D01*
X1450616Y719644D01*
X1450572Y719626D01*
X1450526Y719618D01*
X1450469Y719584D01*
X1450408Y719560D01*
X1450373Y719528D01*
X1450332Y719504D01*
X1450291Y719453D01*
X1450242Y719408D01*
X1450221Y719366D01*
X1450191Y719329D01*
X1450170Y719267D01*
X1450140Y719209D01*
X1450132Y719154D01*
X1450119Y719117D01*
X1450119Y719113D01*
X1450119Y719112D01*
X1450120Y719077D01*
X1450112Y719023D01*
X1450112Y715213D01*
X1450124Y715148D01*
X1450126Y715083D01*
X1450143Y715039D01*
X1450152Y714992D01*
X1450185Y714936D01*
X1450210Y714875D01*
X1450242Y714840D01*
X1450266Y714799D01*
X1450317Y714758D01*
X1450361Y714709D01*
X1450404Y714688D01*
X1450440Y714658D01*
X1450502Y714637D01*
X1450561Y714607D01*
X1450615Y714599D01*
X1450653Y714586D01*
X1450692Y714587D01*
X1450746Y714579D01*
X1453286Y714579D01*
X1453351Y714591D01*
G37*
G36*
X681191Y714591D02*
X681191Y714591D01*
X681257Y714593D01*
X681301Y714610D01*
X681347Y714619D01*
X681404Y714652D01*
X681465Y714677D01*
X681500Y714709D01*
X681540Y714733D01*
X681582Y714784D01*
X681630Y714828D01*
X681652Y714870D01*
X681682Y714907D01*
X681703Y714969D01*
X681733Y715028D01*
X681741Y715082D01*
X681754Y715120D01*
X681753Y715159D01*
X681761Y715213D01*
X681761Y719023D01*
X681749Y719088D01*
X681747Y719154D01*
X681729Y719197D01*
X681721Y719244D01*
X681687Y719301D01*
X681663Y719362D01*
X681631Y719397D01*
X681607Y719437D01*
X681556Y719479D01*
X681511Y719527D01*
X681469Y719549D01*
X681433Y719579D01*
X681370Y719600D01*
X681312Y719630D01*
X681257Y719638D01*
X681220Y719651D01*
X681181Y719649D01*
X681126Y719657D01*
X678586Y719657D01*
X678522Y719646D01*
X678456Y719644D01*
X678412Y719626D01*
X678366Y719618D01*
X678309Y719584D01*
X678248Y719560D01*
X678213Y719528D01*
X678172Y719504D01*
X678131Y719453D01*
X678082Y719408D01*
X678061Y719366D01*
X678031Y719329D01*
X678010Y719267D01*
X677980Y719209D01*
X677972Y719154D01*
X677959Y719117D01*
X677959Y719113D01*
X677959Y719112D01*
X677960Y719077D01*
X677952Y719023D01*
X677952Y715213D01*
X677964Y715148D01*
X677966Y715083D01*
X677983Y715039D01*
X677992Y714992D01*
X678025Y714936D01*
X678050Y714875D01*
X678082Y714840D01*
X678106Y714799D01*
X678157Y714758D01*
X678201Y714709D01*
X678244Y714688D01*
X678280Y714658D01*
X678342Y714637D01*
X678401Y714607D01*
X678455Y714599D01*
X678493Y714586D01*
X678532Y714587D01*
X678586Y714579D01*
X681126Y714579D01*
X681191Y714591D01*
G37*
G36*
X295111Y714591D02*
X295111Y714591D01*
X295177Y714593D01*
X295221Y714610D01*
X295267Y714619D01*
X295324Y714652D01*
X295385Y714677D01*
X295420Y714709D01*
X295460Y714733D01*
X295502Y714784D01*
X295550Y714828D01*
X295572Y714870D01*
X295602Y714907D01*
X295623Y714969D01*
X295653Y715028D01*
X295661Y715082D01*
X295674Y715120D01*
X295673Y715159D01*
X295681Y715213D01*
X295681Y719023D01*
X295669Y719088D01*
X295667Y719154D01*
X295649Y719197D01*
X295641Y719244D01*
X295607Y719301D01*
X295583Y719362D01*
X295551Y719397D01*
X295527Y719437D01*
X295476Y719479D01*
X295431Y719527D01*
X295389Y719549D01*
X295353Y719579D01*
X295290Y719600D01*
X295232Y719630D01*
X295177Y719638D01*
X295140Y719651D01*
X295101Y719649D01*
X295046Y719657D01*
X292506Y719657D01*
X292442Y719646D01*
X292376Y719644D01*
X292332Y719626D01*
X292286Y719618D01*
X292229Y719584D01*
X292168Y719560D01*
X292133Y719528D01*
X292092Y719504D01*
X292051Y719453D01*
X292002Y719408D01*
X291981Y719366D01*
X291951Y719329D01*
X291930Y719267D01*
X291900Y719209D01*
X291892Y719154D01*
X291879Y719117D01*
X291879Y719113D01*
X291879Y719112D01*
X291880Y719077D01*
X291872Y719023D01*
X291872Y715213D01*
X291884Y715148D01*
X291886Y715083D01*
X291903Y715039D01*
X291912Y714992D01*
X291945Y714936D01*
X291970Y714875D01*
X292002Y714840D01*
X292026Y714799D01*
X292077Y714758D01*
X292121Y714709D01*
X292164Y714688D01*
X292200Y714658D01*
X292262Y714637D01*
X292321Y714607D01*
X292375Y714599D01*
X292413Y714586D01*
X292452Y714587D01*
X292506Y714579D01*
X295046Y714579D01*
X295111Y714591D01*
G37*
G36*
X1067271Y714591D02*
X1067271Y714591D01*
X1067337Y714593D01*
X1067381Y714610D01*
X1067427Y714619D01*
X1067484Y714652D01*
X1067545Y714677D01*
X1067580Y714709D01*
X1067620Y714733D01*
X1067662Y714784D01*
X1067710Y714828D01*
X1067732Y714870D01*
X1067762Y714907D01*
X1067783Y714969D01*
X1067813Y715028D01*
X1067821Y715082D01*
X1067834Y715120D01*
X1067833Y715159D01*
X1067841Y715213D01*
X1067841Y719023D01*
X1067829Y719088D01*
X1067827Y719154D01*
X1067809Y719197D01*
X1067801Y719244D01*
X1067767Y719301D01*
X1067743Y719362D01*
X1067711Y719397D01*
X1067687Y719437D01*
X1067636Y719479D01*
X1067591Y719527D01*
X1067549Y719549D01*
X1067513Y719579D01*
X1067450Y719600D01*
X1067392Y719630D01*
X1067337Y719638D01*
X1067300Y719651D01*
X1067261Y719649D01*
X1067206Y719657D01*
X1064666Y719657D01*
X1064602Y719646D01*
X1064536Y719644D01*
X1064492Y719626D01*
X1064446Y719618D01*
X1064389Y719584D01*
X1064328Y719560D01*
X1064293Y719528D01*
X1064252Y719504D01*
X1064211Y719453D01*
X1064162Y719408D01*
X1064141Y719366D01*
X1064111Y719329D01*
X1064090Y719267D01*
X1064060Y719209D01*
X1064052Y719154D01*
X1064039Y719117D01*
X1064039Y719113D01*
X1064039Y719112D01*
X1064040Y719077D01*
X1064032Y719023D01*
X1064032Y715213D01*
X1064044Y715148D01*
X1064046Y715083D01*
X1064063Y715039D01*
X1064072Y714992D01*
X1064105Y714936D01*
X1064130Y714875D01*
X1064162Y714840D01*
X1064186Y714799D01*
X1064237Y714758D01*
X1064281Y714709D01*
X1064324Y714688D01*
X1064360Y714658D01*
X1064422Y714637D01*
X1064481Y714607D01*
X1064535Y714599D01*
X1064573Y714586D01*
X1064612Y714587D01*
X1064666Y714579D01*
X1067206Y714579D01*
X1067271Y714591D01*
G37*
G36*
X681191Y1100671D02*
X681191Y1100671D01*
X681257Y1100673D01*
X681301Y1100690D01*
X681347Y1100699D01*
X681404Y1100732D01*
X681465Y1100757D01*
X681500Y1100789D01*
X681540Y1100813D01*
X681582Y1100864D01*
X681630Y1100908D01*
X681652Y1100950D01*
X681682Y1100987D01*
X681703Y1101049D01*
X681733Y1101108D01*
X681741Y1101162D01*
X681754Y1101200D01*
X681753Y1101239D01*
X681761Y1101293D01*
X681761Y1105103D01*
X681749Y1105168D01*
X681747Y1105234D01*
X681729Y1105277D01*
X681721Y1105324D01*
X681687Y1105381D01*
X681663Y1105442D01*
X681631Y1105477D01*
X681607Y1105517D01*
X681556Y1105559D01*
X681511Y1105607D01*
X681469Y1105629D01*
X681433Y1105659D01*
X681370Y1105680D01*
X681312Y1105710D01*
X681257Y1105718D01*
X681220Y1105731D01*
X681181Y1105729D01*
X681126Y1105737D01*
X678586Y1105737D01*
X678522Y1105726D01*
X678456Y1105724D01*
X678412Y1105706D01*
X678366Y1105698D01*
X678309Y1105664D01*
X678248Y1105640D01*
X678213Y1105608D01*
X678172Y1105584D01*
X678131Y1105533D01*
X678082Y1105488D01*
X678061Y1105446D01*
X678031Y1105409D01*
X678010Y1105347D01*
X677980Y1105289D01*
X677972Y1105234D01*
X677959Y1105197D01*
X677959Y1105193D01*
X677959Y1105192D01*
X677960Y1105157D01*
X677952Y1105103D01*
X677952Y1101293D01*
X677964Y1101228D01*
X677966Y1101163D01*
X677983Y1101119D01*
X677992Y1101072D01*
X678025Y1101016D01*
X678050Y1100955D01*
X678082Y1100920D01*
X678106Y1100879D01*
X678157Y1100838D01*
X678201Y1100789D01*
X678244Y1100768D01*
X678280Y1100738D01*
X678342Y1100717D01*
X678401Y1100687D01*
X678455Y1100679D01*
X678493Y1100666D01*
X678532Y1100667D01*
X678586Y1100659D01*
X681126Y1100659D01*
X681191Y1100671D01*
G37*
G36*
X1453351Y328511D02*
X1453351Y328511D01*
X1453417Y328513D01*
X1453461Y328530D01*
X1453507Y328539D01*
X1453564Y328572D01*
X1453625Y328597D01*
X1453660Y328629D01*
X1453700Y328653D01*
X1453742Y328704D01*
X1453790Y328748D01*
X1453812Y328790D01*
X1453842Y328827D01*
X1453863Y328889D01*
X1453893Y328948D01*
X1453901Y329002D01*
X1453914Y329040D01*
X1453913Y329079D01*
X1453921Y329133D01*
X1453921Y332943D01*
X1453909Y333008D01*
X1453907Y333074D01*
X1453889Y333117D01*
X1453881Y333164D01*
X1453847Y333221D01*
X1453823Y333282D01*
X1453791Y333317D01*
X1453767Y333357D01*
X1453716Y333399D01*
X1453671Y333447D01*
X1453629Y333469D01*
X1453593Y333499D01*
X1453530Y333520D01*
X1453472Y333550D01*
X1453417Y333558D01*
X1453380Y333571D01*
X1453341Y333569D01*
X1453286Y333577D01*
X1450746Y333577D01*
X1450682Y333566D01*
X1450616Y333564D01*
X1450572Y333546D01*
X1450526Y333538D01*
X1450469Y333504D01*
X1450408Y333480D01*
X1450373Y333448D01*
X1450332Y333424D01*
X1450291Y333373D01*
X1450242Y333328D01*
X1450221Y333286D01*
X1450191Y333249D01*
X1450170Y333187D01*
X1450140Y333129D01*
X1450132Y333074D01*
X1450119Y333037D01*
X1450119Y333033D01*
X1450119Y333032D01*
X1450120Y332997D01*
X1450112Y332943D01*
X1450112Y329133D01*
X1450124Y329068D01*
X1450126Y329003D01*
X1450143Y328959D01*
X1450152Y328912D01*
X1450185Y328856D01*
X1450210Y328795D01*
X1450242Y328760D01*
X1450266Y328719D01*
X1450317Y328678D01*
X1450361Y328629D01*
X1450404Y328608D01*
X1450440Y328578D01*
X1450502Y328557D01*
X1450561Y328527D01*
X1450615Y328519D01*
X1450653Y328506D01*
X1450692Y328507D01*
X1450746Y328499D01*
X1453286Y328499D01*
X1453351Y328511D01*
G37*
G36*
X681191Y328511D02*
X681191Y328511D01*
X681257Y328513D01*
X681301Y328530D01*
X681347Y328539D01*
X681404Y328572D01*
X681465Y328597D01*
X681500Y328629D01*
X681540Y328653D01*
X681582Y328704D01*
X681630Y328748D01*
X681652Y328790D01*
X681682Y328827D01*
X681703Y328889D01*
X681733Y328948D01*
X681741Y329002D01*
X681754Y329040D01*
X681753Y329079D01*
X681761Y329133D01*
X681761Y332943D01*
X681749Y333008D01*
X681747Y333074D01*
X681729Y333117D01*
X681721Y333164D01*
X681687Y333221D01*
X681663Y333282D01*
X681631Y333317D01*
X681607Y333357D01*
X681556Y333399D01*
X681511Y333447D01*
X681469Y333469D01*
X681433Y333499D01*
X681370Y333520D01*
X681312Y333550D01*
X681257Y333558D01*
X681220Y333571D01*
X681181Y333569D01*
X681126Y333577D01*
X678586Y333577D01*
X678522Y333566D01*
X678456Y333564D01*
X678412Y333546D01*
X678366Y333538D01*
X678309Y333504D01*
X678248Y333480D01*
X678213Y333448D01*
X678172Y333424D01*
X678131Y333373D01*
X678082Y333328D01*
X678061Y333286D01*
X678031Y333249D01*
X678010Y333187D01*
X677980Y333129D01*
X677972Y333074D01*
X677959Y333037D01*
X677959Y333033D01*
X677959Y333032D01*
X677960Y332997D01*
X677952Y332943D01*
X677952Y329133D01*
X677964Y329068D01*
X677966Y329003D01*
X677983Y328959D01*
X677992Y328912D01*
X678025Y328856D01*
X678050Y328795D01*
X678082Y328760D01*
X678106Y328719D01*
X678157Y328678D01*
X678201Y328629D01*
X678244Y328608D01*
X678280Y328578D01*
X678342Y328557D01*
X678401Y328527D01*
X678455Y328519D01*
X678493Y328506D01*
X678532Y328507D01*
X678586Y328499D01*
X681126Y328499D01*
X681191Y328511D01*
G37*
G36*
X1067271Y328511D02*
X1067271Y328511D01*
X1067337Y328513D01*
X1067381Y328530D01*
X1067427Y328539D01*
X1067484Y328572D01*
X1067545Y328597D01*
X1067580Y328629D01*
X1067620Y328653D01*
X1067662Y328704D01*
X1067710Y328748D01*
X1067732Y328790D01*
X1067762Y328827D01*
X1067783Y328889D01*
X1067813Y328948D01*
X1067821Y329002D01*
X1067834Y329040D01*
X1067833Y329079D01*
X1067841Y329133D01*
X1067841Y332943D01*
X1067829Y333008D01*
X1067827Y333074D01*
X1067809Y333117D01*
X1067801Y333164D01*
X1067767Y333221D01*
X1067743Y333282D01*
X1067711Y333317D01*
X1067687Y333357D01*
X1067636Y333399D01*
X1067591Y333447D01*
X1067549Y333469D01*
X1067513Y333499D01*
X1067450Y333520D01*
X1067392Y333550D01*
X1067337Y333558D01*
X1067300Y333571D01*
X1067261Y333569D01*
X1067206Y333577D01*
X1064666Y333577D01*
X1064602Y333566D01*
X1064536Y333564D01*
X1064492Y333546D01*
X1064446Y333538D01*
X1064389Y333504D01*
X1064328Y333480D01*
X1064293Y333448D01*
X1064252Y333424D01*
X1064211Y333373D01*
X1064162Y333328D01*
X1064141Y333286D01*
X1064111Y333249D01*
X1064090Y333187D01*
X1064060Y333129D01*
X1064052Y333074D01*
X1064039Y333037D01*
X1064039Y333033D01*
X1064039Y333032D01*
X1064040Y332997D01*
X1064032Y332943D01*
X1064032Y329133D01*
X1064044Y329068D01*
X1064046Y329003D01*
X1064063Y328959D01*
X1064072Y328912D01*
X1064105Y328856D01*
X1064130Y328795D01*
X1064162Y328760D01*
X1064186Y328719D01*
X1064237Y328678D01*
X1064281Y328629D01*
X1064324Y328608D01*
X1064360Y328578D01*
X1064422Y328557D01*
X1064481Y328527D01*
X1064535Y328519D01*
X1064573Y328506D01*
X1064612Y328507D01*
X1064666Y328499D01*
X1067206Y328499D01*
X1067271Y328511D01*
G37*
G36*
X295111Y328511D02*
X295111Y328511D01*
X295177Y328513D01*
X295221Y328530D01*
X295267Y328539D01*
X295324Y328572D01*
X295385Y328597D01*
X295420Y328629D01*
X295460Y328653D01*
X295502Y328704D01*
X295550Y328748D01*
X295572Y328790D01*
X295602Y328827D01*
X295623Y328889D01*
X295653Y328948D01*
X295661Y329002D01*
X295674Y329040D01*
X295673Y329079D01*
X295681Y329133D01*
X295681Y332943D01*
X295669Y333008D01*
X295667Y333074D01*
X295649Y333117D01*
X295641Y333164D01*
X295607Y333221D01*
X295583Y333282D01*
X295551Y333317D01*
X295527Y333357D01*
X295476Y333399D01*
X295431Y333447D01*
X295389Y333469D01*
X295353Y333499D01*
X295290Y333520D01*
X295232Y333550D01*
X295177Y333558D01*
X295140Y333571D01*
X295101Y333569D01*
X295046Y333577D01*
X292506Y333577D01*
X292442Y333566D01*
X292376Y333564D01*
X292332Y333546D01*
X292286Y333538D01*
X292229Y333504D01*
X292168Y333480D01*
X292133Y333448D01*
X292092Y333424D01*
X292051Y333373D01*
X292002Y333328D01*
X291981Y333286D01*
X291951Y333249D01*
X291930Y333187D01*
X291900Y333129D01*
X291892Y333074D01*
X291879Y333037D01*
X291879Y333033D01*
X291879Y333032D01*
X291880Y332997D01*
X291872Y332943D01*
X291872Y329133D01*
X291884Y329068D01*
X291886Y329003D01*
X291903Y328959D01*
X291912Y328912D01*
X291945Y328856D01*
X291970Y328795D01*
X292002Y328760D01*
X292026Y328719D01*
X292077Y328678D01*
X292121Y328629D01*
X292164Y328608D01*
X292200Y328578D01*
X292262Y328557D01*
X292321Y328527D01*
X292375Y328519D01*
X292413Y328506D01*
X292452Y328507D01*
X292506Y328499D01*
X295046Y328499D01*
X295111Y328511D01*
G37*
G36*
X295111Y1100671D02*
X295111Y1100671D01*
X295177Y1100673D01*
X295221Y1100690D01*
X295267Y1100699D01*
X295324Y1100732D01*
X295385Y1100757D01*
X295420Y1100789D01*
X295460Y1100813D01*
X295502Y1100864D01*
X295550Y1100908D01*
X295572Y1100950D01*
X295602Y1100987D01*
X295623Y1101049D01*
X295653Y1101108D01*
X295661Y1101162D01*
X295674Y1101200D01*
X295673Y1101239D01*
X295681Y1101293D01*
X295681Y1105103D01*
X295669Y1105168D01*
X295667Y1105234D01*
X295649Y1105277D01*
X295641Y1105324D01*
X295607Y1105381D01*
X295583Y1105442D01*
X295551Y1105477D01*
X295527Y1105517D01*
X295476Y1105559D01*
X295431Y1105607D01*
X295389Y1105629D01*
X295353Y1105659D01*
X295290Y1105680D01*
X295232Y1105710D01*
X295177Y1105718D01*
X295140Y1105731D01*
X295101Y1105729D01*
X295046Y1105737D01*
X292506Y1105737D01*
X292442Y1105726D01*
X292376Y1105724D01*
X292332Y1105706D01*
X292286Y1105698D01*
X292229Y1105664D01*
X292168Y1105640D01*
X292133Y1105608D01*
X292092Y1105584D01*
X292051Y1105533D01*
X292002Y1105488D01*
X291981Y1105446D01*
X291951Y1105409D01*
X291930Y1105347D01*
X291900Y1105289D01*
X291892Y1105234D01*
X291879Y1105197D01*
X291879Y1105193D01*
X291879Y1105192D01*
X291880Y1105157D01*
X291872Y1105103D01*
X291872Y1101293D01*
X291884Y1101228D01*
X291886Y1101163D01*
X291903Y1101119D01*
X291912Y1101072D01*
X291945Y1101016D01*
X291970Y1100955D01*
X292002Y1100920D01*
X292026Y1100879D01*
X292077Y1100838D01*
X292121Y1100789D01*
X292164Y1100768D01*
X292200Y1100738D01*
X292262Y1100717D01*
X292321Y1100687D01*
X292375Y1100679D01*
X292413Y1100666D01*
X292452Y1100667D01*
X292506Y1100659D01*
X295046Y1100659D01*
X295111Y1100671D01*
G37*
G36*
X1308089Y787209D02*
X1308089Y787209D01*
X1308154Y787211D01*
X1308198Y787229D01*
X1308245Y787237D01*
X1308301Y787271D01*
X1308362Y787295D01*
X1308397Y787327D01*
X1308438Y787351D01*
X1308479Y787402D01*
X1308528Y787447D01*
X1308549Y787489D01*
X1308579Y787526D01*
X1308600Y787588D01*
X1308630Y787646D01*
X1308638Y787701D01*
X1308651Y787738D01*
X1308650Y787777D01*
X1308658Y787832D01*
X1308658Y790372D01*
X1308646Y790437D01*
X1308644Y790502D01*
X1308627Y790546D01*
X1308618Y790593D01*
X1308585Y790649D01*
X1308560Y790710D01*
X1308528Y790745D01*
X1308504Y790786D01*
X1308453Y790827D01*
X1308409Y790876D01*
X1308367Y790897D01*
X1308330Y790927D01*
X1308268Y790948D01*
X1308209Y790978D01*
X1308155Y790987D01*
X1308118Y790999D01*
X1308078Y790998D01*
X1308024Y791006D01*
X1304214Y791006D01*
X1304149Y790994D01*
X1304083Y790992D01*
X1304040Y790975D01*
X1303993Y790966D01*
X1303936Y790933D01*
X1303875Y790908D01*
X1303840Y790876D01*
X1303800Y790852D01*
X1303758Y790801D01*
X1303710Y790757D01*
X1303688Y790715D01*
X1303658Y790678D01*
X1303637Y790616D01*
X1303607Y790557D01*
X1303599Y790503D01*
X1303587Y790466D01*
X1303587Y790463D01*
X1303588Y790426D01*
X1303580Y790372D01*
X1303580Y787832D01*
X1303591Y787767D01*
X1303593Y787701D01*
X1303611Y787658D01*
X1303619Y787611D01*
X1303653Y787554D01*
X1303677Y787493D01*
X1303709Y787459D01*
X1303733Y787418D01*
X1303784Y787376D01*
X1303829Y787328D01*
X1303871Y787306D01*
X1303908Y787276D01*
X1303970Y787255D01*
X1304028Y787225D01*
X1304083Y787217D01*
X1304120Y787205D01*
X1304159Y787206D01*
X1304214Y787198D01*
X1308024Y787198D01*
X1308089Y787209D01*
G37*
G36*
X535929Y401129D02*
X535929Y401129D01*
X535994Y401131D01*
X536038Y401149D01*
X536085Y401157D01*
X536141Y401191D01*
X536202Y401215D01*
X536237Y401247D01*
X536278Y401271D01*
X536319Y401322D01*
X536368Y401367D01*
X536389Y401409D01*
X536419Y401446D01*
X536440Y401508D01*
X536470Y401566D01*
X536478Y401621D01*
X536491Y401658D01*
X536490Y401697D01*
X536498Y401752D01*
X536498Y404292D01*
X536486Y404357D01*
X536484Y404422D01*
X536467Y404466D01*
X536458Y404513D01*
X536425Y404569D01*
X536400Y404630D01*
X536368Y404665D01*
X536344Y404706D01*
X536293Y404747D01*
X536249Y404796D01*
X536207Y404817D01*
X536170Y404847D01*
X536108Y404868D01*
X536049Y404898D01*
X535995Y404907D01*
X535958Y404919D01*
X535918Y404918D01*
X535864Y404926D01*
X532054Y404926D01*
X531989Y404914D01*
X531923Y404912D01*
X531880Y404895D01*
X531833Y404886D01*
X531776Y404853D01*
X531715Y404828D01*
X531680Y404796D01*
X531640Y404772D01*
X531598Y404721D01*
X531550Y404677D01*
X531528Y404635D01*
X531498Y404598D01*
X531477Y404536D01*
X531447Y404477D01*
X531439Y404423D01*
X531427Y404386D01*
X531427Y404383D01*
X531428Y404346D01*
X531420Y404292D01*
X531420Y401752D01*
X531431Y401687D01*
X531433Y401621D01*
X531451Y401578D01*
X531459Y401531D01*
X531493Y401474D01*
X531517Y401413D01*
X531549Y401379D01*
X531573Y401338D01*
X531624Y401296D01*
X531669Y401248D01*
X531711Y401226D01*
X531748Y401196D01*
X531810Y401175D01*
X531868Y401145D01*
X531923Y401137D01*
X531960Y401125D01*
X531999Y401126D01*
X532054Y401118D01*
X535864Y401118D01*
X535929Y401129D01*
G37*
G36*
X922009Y401129D02*
X922009Y401129D01*
X922074Y401131D01*
X922118Y401149D01*
X922165Y401157D01*
X922221Y401191D01*
X922282Y401215D01*
X922317Y401247D01*
X922358Y401271D01*
X922399Y401322D01*
X922448Y401367D01*
X922469Y401409D01*
X922499Y401446D01*
X922520Y401508D01*
X922550Y401566D01*
X922558Y401621D01*
X922571Y401658D01*
X922570Y401697D01*
X922578Y401752D01*
X922578Y404292D01*
X922566Y404357D01*
X922564Y404422D01*
X922547Y404466D01*
X922538Y404513D01*
X922505Y404569D01*
X922480Y404630D01*
X922448Y404665D01*
X922424Y404706D01*
X922373Y404747D01*
X922329Y404796D01*
X922287Y404817D01*
X922250Y404847D01*
X922188Y404868D01*
X922129Y404898D01*
X922075Y404907D01*
X922038Y404919D01*
X921998Y404918D01*
X921944Y404926D01*
X918134Y404926D01*
X918069Y404914D01*
X918003Y404912D01*
X917960Y404895D01*
X917913Y404886D01*
X917856Y404853D01*
X917795Y404828D01*
X917760Y404796D01*
X917720Y404772D01*
X917678Y404721D01*
X917630Y404677D01*
X917608Y404635D01*
X917578Y404598D01*
X917557Y404536D01*
X917527Y404477D01*
X917519Y404423D01*
X917507Y404386D01*
X917507Y404383D01*
X917508Y404346D01*
X917500Y404292D01*
X917500Y401752D01*
X917511Y401687D01*
X917513Y401621D01*
X917531Y401578D01*
X917539Y401531D01*
X917573Y401474D01*
X917597Y401413D01*
X917629Y401379D01*
X917653Y401338D01*
X917704Y401296D01*
X917749Y401248D01*
X917791Y401226D01*
X917828Y401196D01*
X917890Y401175D01*
X917948Y401145D01*
X918003Y401137D01*
X918040Y401125D01*
X918079Y401126D01*
X918134Y401118D01*
X921944Y401118D01*
X922009Y401129D01*
G37*
G36*
X1308089Y401129D02*
X1308089Y401129D01*
X1308154Y401131D01*
X1308198Y401149D01*
X1308245Y401157D01*
X1308301Y401191D01*
X1308362Y401215D01*
X1308397Y401247D01*
X1308438Y401271D01*
X1308479Y401322D01*
X1308528Y401367D01*
X1308549Y401409D01*
X1308579Y401446D01*
X1308600Y401508D01*
X1308630Y401566D01*
X1308638Y401621D01*
X1308651Y401658D01*
X1308650Y401697D01*
X1308658Y401752D01*
X1308658Y404292D01*
X1308646Y404357D01*
X1308644Y404422D01*
X1308627Y404466D01*
X1308618Y404513D01*
X1308585Y404569D01*
X1308560Y404630D01*
X1308528Y404665D01*
X1308504Y404706D01*
X1308453Y404747D01*
X1308409Y404796D01*
X1308367Y404817D01*
X1308330Y404847D01*
X1308268Y404868D01*
X1308209Y404898D01*
X1308155Y404907D01*
X1308118Y404919D01*
X1308078Y404918D01*
X1308024Y404926D01*
X1304214Y404926D01*
X1304149Y404914D01*
X1304083Y404912D01*
X1304040Y404895D01*
X1303993Y404886D01*
X1303936Y404853D01*
X1303875Y404828D01*
X1303840Y404796D01*
X1303800Y404772D01*
X1303758Y404721D01*
X1303710Y404677D01*
X1303688Y404635D01*
X1303658Y404598D01*
X1303637Y404536D01*
X1303607Y404477D01*
X1303599Y404423D01*
X1303587Y404386D01*
X1303587Y404383D01*
X1303588Y404346D01*
X1303580Y404292D01*
X1303580Y401752D01*
X1303591Y401687D01*
X1303593Y401621D01*
X1303611Y401578D01*
X1303619Y401531D01*
X1303653Y401474D01*
X1303677Y401413D01*
X1303709Y401379D01*
X1303733Y401338D01*
X1303784Y401296D01*
X1303829Y401248D01*
X1303871Y401226D01*
X1303908Y401196D01*
X1303970Y401175D01*
X1304028Y401145D01*
X1304083Y401137D01*
X1304120Y401125D01*
X1304159Y401126D01*
X1304214Y401118D01*
X1308024Y401118D01*
X1308089Y401129D01*
G37*
G36*
X535929Y787209D02*
X535929Y787209D01*
X535994Y787211D01*
X536038Y787229D01*
X536085Y787237D01*
X536141Y787271D01*
X536202Y787295D01*
X536237Y787327D01*
X536278Y787351D01*
X536319Y787402D01*
X536368Y787447D01*
X536389Y787489D01*
X536419Y787526D01*
X536440Y787588D01*
X536470Y787646D01*
X536478Y787701D01*
X536491Y787738D01*
X536490Y787777D01*
X536498Y787832D01*
X536498Y790372D01*
X536486Y790437D01*
X536484Y790502D01*
X536467Y790546D01*
X536458Y790593D01*
X536425Y790649D01*
X536400Y790710D01*
X536368Y790745D01*
X536344Y790786D01*
X536293Y790827D01*
X536249Y790876D01*
X536207Y790897D01*
X536170Y790927D01*
X536108Y790948D01*
X536049Y790978D01*
X535995Y790987D01*
X535958Y790999D01*
X535918Y790998D01*
X535864Y791006D01*
X532054Y791006D01*
X531989Y790994D01*
X531923Y790992D01*
X531880Y790975D01*
X531833Y790966D01*
X531776Y790933D01*
X531715Y790908D01*
X531680Y790876D01*
X531640Y790852D01*
X531598Y790801D01*
X531550Y790757D01*
X531528Y790715D01*
X531498Y790678D01*
X531477Y790616D01*
X531447Y790557D01*
X531439Y790503D01*
X531427Y790466D01*
X531427Y790463D01*
X531428Y790426D01*
X531420Y790372D01*
X531420Y787832D01*
X531431Y787767D01*
X531433Y787701D01*
X531451Y787658D01*
X531459Y787611D01*
X531493Y787554D01*
X531517Y787493D01*
X531549Y787459D01*
X531573Y787418D01*
X531624Y787376D01*
X531669Y787328D01*
X531711Y787306D01*
X531748Y787276D01*
X531810Y787255D01*
X531868Y787225D01*
X531923Y787217D01*
X531960Y787205D01*
X531999Y787206D01*
X532054Y787198D01*
X535864Y787198D01*
X535929Y787209D01*
G37*
G36*
X149849Y787209D02*
X149849Y787209D01*
X149914Y787211D01*
X149958Y787229D01*
X150005Y787237D01*
X150061Y787271D01*
X150122Y787295D01*
X150157Y787327D01*
X150198Y787351D01*
X150239Y787402D01*
X150288Y787447D01*
X150309Y787489D01*
X150339Y787526D01*
X150360Y787588D01*
X150390Y787646D01*
X150398Y787701D01*
X150411Y787738D01*
X150410Y787777D01*
X150418Y787832D01*
X150418Y790372D01*
X150406Y790437D01*
X150404Y790502D01*
X150387Y790546D01*
X150378Y790593D01*
X150345Y790649D01*
X150320Y790710D01*
X150288Y790745D01*
X150264Y790786D01*
X150213Y790827D01*
X150169Y790876D01*
X150127Y790897D01*
X150090Y790927D01*
X150028Y790948D01*
X149969Y790978D01*
X149915Y790987D01*
X149878Y790999D01*
X149838Y790998D01*
X149784Y791006D01*
X145974Y791006D01*
X145909Y790994D01*
X145843Y790992D01*
X145800Y790975D01*
X145753Y790966D01*
X145696Y790933D01*
X145635Y790908D01*
X145600Y790876D01*
X145560Y790852D01*
X145518Y790801D01*
X145470Y790757D01*
X145448Y790715D01*
X145418Y790678D01*
X145397Y790616D01*
X145367Y790557D01*
X145359Y790503D01*
X145347Y790466D01*
X145347Y790463D01*
X145348Y790426D01*
X145340Y790372D01*
X145340Y787832D01*
X145351Y787767D01*
X145353Y787701D01*
X145371Y787658D01*
X145379Y787611D01*
X145413Y787554D01*
X145437Y787493D01*
X145469Y787459D01*
X145493Y787418D01*
X145544Y787376D01*
X145589Y787328D01*
X145631Y787306D01*
X145668Y787276D01*
X145730Y787255D01*
X145788Y787225D01*
X145843Y787217D01*
X145880Y787205D01*
X145919Y787206D01*
X145974Y787198D01*
X149784Y787198D01*
X149849Y787209D01*
G37*
G36*
X922009Y787209D02*
X922009Y787209D01*
X922074Y787211D01*
X922118Y787229D01*
X922165Y787237D01*
X922221Y787271D01*
X922282Y787295D01*
X922317Y787327D01*
X922358Y787351D01*
X922399Y787402D01*
X922448Y787447D01*
X922469Y787489D01*
X922499Y787526D01*
X922520Y787588D01*
X922550Y787646D01*
X922558Y787701D01*
X922571Y787738D01*
X922570Y787777D01*
X922578Y787832D01*
X922578Y790372D01*
X922566Y790437D01*
X922564Y790502D01*
X922547Y790546D01*
X922538Y790593D01*
X922505Y790649D01*
X922480Y790710D01*
X922448Y790745D01*
X922424Y790786D01*
X922373Y790827D01*
X922329Y790876D01*
X922287Y790897D01*
X922250Y790927D01*
X922188Y790948D01*
X922129Y790978D01*
X922075Y790987D01*
X922038Y790999D01*
X921998Y790998D01*
X921944Y791006D01*
X918134Y791006D01*
X918069Y790994D01*
X918003Y790992D01*
X917960Y790975D01*
X917913Y790966D01*
X917856Y790933D01*
X917795Y790908D01*
X917760Y790876D01*
X917720Y790852D01*
X917678Y790801D01*
X917630Y790757D01*
X917608Y790715D01*
X917578Y790678D01*
X917557Y790616D01*
X917527Y790557D01*
X917519Y790503D01*
X917507Y790466D01*
X917507Y790463D01*
X917508Y790426D01*
X917500Y790372D01*
X917500Y787832D01*
X917511Y787767D01*
X917513Y787701D01*
X917531Y787658D01*
X917539Y787611D01*
X917573Y787554D01*
X917597Y787493D01*
X917629Y787459D01*
X917653Y787418D01*
X917704Y787376D01*
X917749Y787328D01*
X917791Y787306D01*
X917828Y787276D01*
X917890Y787255D01*
X917948Y787225D01*
X918003Y787217D01*
X918040Y787205D01*
X918079Y787206D01*
X918134Y787198D01*
X921944Y787198D01*
X922009Y787209D01*
G37*
G36*
X149849Y401129D02*
X149849Y401129D01*
X149914Y401131D01*
X149958Y401149D01*
X150005Y401157D01*
X150061Y401191D01*
X150122Y401215D01*
X150157Y401247D01*
X150198Y401271D01*
X150239Y401322D01*
X150288Y401367D01*
X150309Y401409D01*
X150339Y401446D01*
X150360Y401508D01*
X150390Y401566D01*
X150398Y401621D01*
X150411Y401658D01*
X150410Y401697D01*
X150418Y401752D01*
X150418Y404292D01*
X150406Y404357D01*
X150404Y404422D01*
X150387Y404466D01*
X150378Y404513D01*
X150345Y404569D01*
X150320Y404630D01*
X150288Y404665D01*
X150264Y404706D01*
X150213Y404747D01*
X150169Y404796D01*
X150127Y404817D01*
X150090Y404847D01*
X150028Y404868D01*
X149969Y404898D01*
X149915Y404907D01*
X149878Y404919D01*
X149838Y404918D01*
X149784Y404926D01*
X145974Y404926D01*
X145909Y404914D01*
X145843Y404912D01*
X145800Y404895D01*
X145753Y404886D01*
X145696Y404853D01*
X145635Y404828D01*
X145600Y404796D01*
X145560Y404772D01*
X145518Y404721D01*
X145470Y404677D01*
X145448Y404635D01*
X145418Y404598D01*
X145397Y404536D01*
X145367Y404477D01*
X145359Y404423D01*
X145347Y404386D01*
X145347Y404383D01*
X145348Y404346D01*
X145340Y404292D01*
X145340Y401752D01*
X145351Y401687D01*
X145353Y401621D01*
X145371Y401578D01*
X145379Y401531D01*
X145413Y401474D01*
X145437Y401413D01*
X145469Y401379D01*
X145493Y401338D01*
X145544Y401296D01*
X145589Y401248D01*
X145631Y401226D01*
X145668Y401196D01*
X145730Y401175D01*
X145788Y401145D01*
X145843Y401137D01*
X145880Y401125D01*
X145919Y401126D01*
X145974Y401118D01*
X149784Y401118D01*
X149849Y401129D01*
G37*
G36*
X922009Y15049D02*
X922009Y15049D01*
X922074Y15051D01*
X922118Y15069D01*
X922165Y15077D01*
X922221Y15111D01*
X922282Y15135D01*
X922317Y15167D01*
X922358Y15191D01*
X922399Y15242D01*
X922448Y15287D01*
X922469Y15329D01*
X922499Y15366D01*
X922520Y15428D01*
X922550Y15486D01*
X922558Y15541D01*
X922571Y15578D01*
X922570Y15617D01*
X922578Y15672D01*
X922578Y18212D01*
X922566Y18277D01*
X922564Y18342D01*
X922547Y18386D01*
X922538Y18433D01*
X922505Y18489D01*
X922480Y18550D01*
X922448Y18585D01*
X922424Y18626D01*
X922373Y18667D01*
X922329Y18716D01*
X922287Y18737D01*
X922250Y18767D01*
X922188Y18788D01*
X922129Y18818D01*
X922075Y18827D01*
X922038Y18839D01*
X921998Y18838D01*
X921944Y18846D01*
X918134Y18846D01*
X918069Y18834D01*
X918003Y18832D01*
X917960Y18815D01*
X917913Y18806D01*
X917856Y18773D01*
X917795Y18748D01*
X917760Y18716D01*
X917720Y18692D01*
X917678Y18641D01*
X917630Y18597D01*
X917608Y18555D01*
X917578Y18518D01*
X917557Y18456D01*
X917527Y18397D01*
X917519Y18343D01*
X917507Y18306D01*
X917507Y18303D01*
X917508Y18266D01*
X917500Y18212D01*
X917500Y15672D01*
X917511Y15607D01*
X917513Y15541D01*
X917531Y15498D01*
X917539Y15451D01*
X917573Y15394D01*
X917597Y15333D01*
X917629Y15299D01*
X917653Y15258D01*
X917704Y15216D01*
X917749Y15168D01*
X917791Y15146D01*
X917828Y15116D01*
X917890Y15095D01*
X917948Y15065D01*
X918003Y15057D01*
X918040Y15045D01*
X918079Y15046D01*
X918134Y15038D01*
X921944Y15038D01*
X922009Y15049D01*
G37*
G36*
X1308089Y15049D02*
X1308089Y15049D01*
X1308154Y15051D01*
X1308198Y15069D01*
X1308245Y15077D01*
X1308301Y15111D01*
X1308362Y15135D01*
X1308397Y15167D01*
X1308438Y15191D01*
X1308479Y15242D01*
X1308528Y15287D01*
X1308549Y15329D01*
X1308579Y15366D01*
X1308600Y15428D01*
X1308630Y15486D01*
X1308638Y15541D01*
X1308651Y15578D01*
X1308650Y15617D01*
X1308658Y15672D01*
X1308658Y18212D01*
X1308646Y18277D01*
X1308644Y18342D01*
X1308627Y18386D01*
X1308618Y18433D01*
X1308585Y18489D01*
X1308560Y18550D01*
X1308528Y18585D01*
X1308504Y18626D01*
X1308453Y18667D01*
X1308409Y18716D01*
X1308367Y18737D01*
X1308330Y18767D01*
X1308268Y18788D01*
X1308209Y18818D01*
X1308155Y18827D01*
X1308118Y18839D01*
X1308078Y18838D01*
X1308024Y18846D01*
X1304214Y18846D01*
X1304149Y18834D01*
X1304083Y18832D01*
X1304040Y18815D01*
X1303993Y18806D01*
X1303936Y18773D01*
X1303875Y18748D01*
X1303840Y18716D01*
X1303800Y18692D01*
X1303758Y18641D01*
X1303710Y18597D01*
X1303688Y18555D01*
X1303658Y18518D01*
X1303637Y18456D01*
X1303607Y18397D01*
X1303599Y18343D01*
X1303587Y18306D01*
X1303587Y18303D01*
X1303588Y18266D01*
X1303580Y18212D01*
X1303580Y15672D01*
X1303591Y15607D01*
X1303593Y15541D01*
X1303611Y15498D01*
X1303619Y15451D01*
X1303653Y15394D01*
X1303677Y15333D01*
X1303709Y15299D01*
X1303733Y15258D01*
X1303784Y15216D01*
X1303829Y15168D01*
X1303871Y15146D01*
X1303908Y15116D01*
X1303970Y15095D01*
X1304028Y15065D01*
X1304083Y15057D01*
X1304120Y15045D01*
X1304159Y15046D01*
X1304214Y15038D01*
X1308024Y15038D01*
X1308089Y15049D01*
G37*
G36*
X149849Y15049D02*
X149849Y15049D01*
X149914Y15051D01*
X149958Y15069D01*
X150005Y15077D01*
X150061Y15111D01*
X150122Y15135D01*
X150157Y15167D01*
X150198Y15191D01*
X150239Y15242D01*
X150288Y15287D01*
X150309Y15329D01*
X150339Y15366D01*
X150360Y15428D01*
X150390Y15486D01*
X150398Y15541D01*
X150411Y15578D01*
X150410Y15617D01*
X150418Y15672D01*
X150418Y18212D01*
X150406Y18277D01*
X150404Y18342D01*
X150387Y18386D01*
X150378Y18433D01*
X150345Y18489D01*
X150320Y18550D01*
X150288Y18585D01*
X150264Y18626D01*
X150213Y18667D01*
X150169Y18716D01*
X150127Y18737D01*
X150090Y18767D01*
X150028Y18788D01*
X149969Y18818D01*
X149915Y18827D01*
X149878Y18839D01*
X149838Y18838D01*
X149784Y18846D01*
X145974Y18846D01*
X145909Y18834D01*
X145843Y18832D01*
X145800Y18815D01*
X145753Y18806D01*
X145696Y18773D01*
X145635Y18748D01*
X145600Y18716D01*
X145560Y18692D01*
X145518Y18641D01*
X145470Y18597D01*
X145448Y18555D01*
X145418Y18518D01*
X145397Y18456D01*
X145367Y18397D01*
X145359Y18343D01*
X145347Y18306D01*
X145347Y18303D01*
X145348Y18266D01*
X145340Y18212D01*
X145340Y15672D01*
X145351Y15607D01*
X145353Y15541D01*
X145371Y15498D01*
X145379Y15451D01*
X145413Y15394D01*
X145437Y15333D01*
X145469Y15299D01*
X145493Y15258D01*
X145544Y15216D01*
X145589Y15168D01*
X145631Y15146D01*
X145668Y15116D01*
X145730Y15095D01*
X145788Y15065D01*
X145843Y15057D01*
X145880Y15045D01*
X145919Y15046D01*
X145974Y15038D01*
X149784Y15038D01*
X149849Y15049D01*
G37*
G36*
X535929Y15049D02*
X535929Y15049D01*
X535994Y15051D01*
X536038Y15069D01*
X536085Y15077D01*
X536141Y15111D01*
X536202Y15135D01*
X536237Y15167D01*
X536278Y15191D01*
X536319Y15242D01*
X536368Y15287D01*
X536389Y15329D01*
X536419Y15366D01*
X536440Y15428D01*
X536470Y15486D01*
X536478Y15541D01*
X536491Y15578D01*
X536490Y15617D01*
X536498Y15672D01*
X536498Y18212D01*
X536486Y18277D01*
X536484Y18342D01*
X536467Y18386D01*
X536458Y18433D01*
X536425Y18489D01*
X536400Y18550D01*
X536368Y18585D01*
X536344Y18626D01*
X536293Y18667D01*
X536249Y18716D01*
X536207Y18737D01*
X536170Y18767D01*
X536108Y18788D01*
X536049Y18818D01*
X535995Y18827D01*
X535958Y18839D01*
X535918Y18838D01*
X535864Y18846D01*
X532054Y18846D01*
X531989Y18834D01*
X531923Y18832D01*
X531880Y18815D01*
X531833Y18806D01*
X531776Y18773D01*
X531715Y18748D01*
X531680Y18716D01*
X531640Y18692D01*
X531598Y18641D01*
X531550Y18597D01*
X531528Y18555D01*
X531498Y18518D01*
X531477Y18456D01*
X531447Y18397D01*
X531439Y18343D01*
X531427Y18306D01*
X531427Y18303D01*
X531428Y18266D01*
X531420Y18212D01*
X531420Y15672D01*
X531431Y15607D01*
X531433Y15541D01*
X531451Y15498D01*
X531459Y15451D01*
X531493Y15394D01*
X531517Y15333D01*
X531549Y15299D01*
X531573Y15258D01*
X531624Y15216D01*
X531669Y15168D01*
X531711Y15146D01*
X531748Y15116D01*
X531810Y15095D01*
X531868Y15065D01*
X531923Y15057D01*
X531960Y15045D01*
X531999Y15046D01*
X532054Y15038D01*
X535864Y15038D01*
X535929Y15049D01*
G37*
D10*
X228498Y57048D03*
X614578Y57048D03*
X1000658Y57048D03*
X1386738Y57048D03*
X228498Y443128D03*
X614578Y443128D03*
X1000658Y443128D03*
X1386738Y443128D03*
X228498Y829208D03*
X614578Y829208D03*
X1000658Y829208D03*
X1386738Y829208D03*
D11*
X25400Y25400D03*
X355600Y25400D03*
X355600Y355600D03*
X25400Y355600D03*
D12*
X53340Y254000D03*
X99060Y254000D03*
D13*
X368300Y241300D03*
X368300Y215900D03*
X368300Y190500D03*
X368300Y165100D03*
X12700Y88900D03*
X12700Y114300D03*
D14*
X43043Y159248D02*
X48397Y159248D01*
X43043Y159248D02*
X43043Y170952D01*
X48397Y170952D01*
X48397Y159248D01*
X48397Y161642D02*
X43043Y161642D01*
X43043Y164036D02*
X48397Y164036D01*
X48397Y166430D02*
X43043Y166430D01*
X43043Y168824D02*
X48397Y168824D01*
X53203Y159248D02*
X58557Y159248D01*
X53203Y159248D02*
X53203Y170952D01*
X58557Y170952D01*
X58557Y159248D01*
X58557Y161642D02*
X53203Y161642D01*
X53203Y164036D02*
X58557Y164036D01*
X58557Y166430D02*
X53203Y166430D01*
X53203Y168824D02*
X58557Y168824D01*
D13*
X38100Y165100D03*
X63500Y165100D03*
D14*
X287924Y333441D02*
X287924Y339049D01*
X299628Y339049D01*
X299628Y333441D01*
X287924Y333441D01*
X287924Y335835D02*
X299628Y335835D01*
X299628Y338229D02*
X287924Y338229D01*
X287924Y328635D02*
X287924Y323027D01*
X287924Y328635D02*
X299628Y328635D01*
X299628Y323027D01*
X287924Y323027D01*
X287924Y325421D02*
X299628Y325421D01*
X299628Y327815D02*
X287924Y327815D01*
X145476Y11090D02*
X139868Y11090D01*
X139868Y22794D01*
X145476Y22794D01*
X145476Y11090D01*
X145476Y13484D02*
X139868Y13484D01*
X139868Y15878D02*
X145476Y15878D01*
X145476Y18272D02*
X139868Y18272D01*
X139868Y20666D02*
X145476Y20666D01*
X150282Y11090D02*
X155890Y11090D01*
X150282Y11090D02*
X150282Y22794D01*
X155890Y22794D01*
X155890Y11090D01*
X155890Y13484D02*
X150282Y13484D01*
X150282Y15878D02*
X155890Y15878D01*
X155890Y18272D02*
X150282Y18272D01*
X150282Y20666D02*
X155890Y20666D01*
D15*
X50800Y12700D03*
X330200Y368300D03*
D13*
X88900Y368300D03*
X114300Y368300D03*
D11*
X411480Y25400D03*
X741680Y25400D03*
X741680Y355600D03*
X411480Y355600D03*
D12*
X439420Y254000D03*
X485140Y254000D03*
D13*
X754380Y241300D03*
X754380Y215900D03*
X754380Y190500D03*
X754380Y165100D03*
X398780Y88900D03*
X398780Y114300D03*
D14*
X429123Y159248D02*
X434477Y159248D01*
X429123Y159248D02*
X429123Y170952D01*
X434477Y170952D01*
X434477Y159248D01*
X434477Y161642D02*
X429123Y161642D01*
X429123Y164036D02*
X434477Y164036D01*
X434477Y166430D02*
X429123Y166430D01*
X429123Y168824D02*
X434477Y168824D01*
X439283Y159248D02*
X444637Y159248D01*
X439283Y159248D02*
X439283Y170952D01*
X444637Y170952D01*
X444637Y159248D01*
X444637Y161642D02*
X439283Y161642D01*
X439283Y164036D02*
X444637Y164036D01*
X444637Y166430D02*
X439283Y166430D01*
X439283Y168824D02*
X444637Y168824D01*
D13*
X424180Y165100D03*
X449580Y165100D03*
D14*
X674004Y333441D02*
X674004Y339049D01*
X685708Y339049D01*
X685708Y333441D01*
X674004Y333441D01*
X674004Y335835D02*
X685708Y335835D01*
X685708Y338229D02*
X674004Y338229D01*
X674004Y328635D02*
X674004Y323027D01*
X674004Y328635D02*
X685708Y328635D01*
X685708Y323027D01*
X674004Y323027D01*
X674004Y325421D02*
X685708Y325421D01*
X685708Y327815D02*
X674004Y327815D01*
X531556Y11090D02*
X525948Y11090D01*
X525948Y22794D01*
X531556Y22794D01*
X531556Y11090D01*
X531556Y13484D02*
X525948Y13484D01*
X525948Y15878D02*
X531556Y15878D01*
X531556Y18272D02*
X525948Y18272D01*
X525948Y20666D02*
X531556Y20666D01*
X536362Y11090D02*
X541970Y11090D01*
X536362Y11090D02*
X536362Y22794D01*
X541970Y22794D01*
X541970Y11090D01*
X541970Y13484D02*
X536362Y13484D01*
X536362Y15878D02*
X541970Y15878D01*
X541970Y18272D02*
X536362Y18272D01*
X536362Y20666D02*
X541970Y20666D01*
D15*
X436880Y12700D03*
X716280Y368300D03*
D13*
X474980Y368300D03*
X500380Y368300D03*
D11*
X797560Y25400D03*
X1127760Y25400D03*
X1127760Y355600D03*
X797560Y355600D03*
D12*
X825500Y254000D03*
X871220Y254000D03*
D13*
X1140460Y241300D03*
X1140460Y215900D03*
X1140460Y190500D03*
X1140460Y165100D03*
X784860Y88900D03*
X784860Y114300D03*
D14*
X815203Y159248D02*
X820557Y159248D01*
X815203Y159248D02*
X815203Y170952D01*
X820557Y170952D01*
X820557Y159248D01*
X820557Y161642D02*
X815203Y161642D01*
X815203Y164036D02*
X820557Y164036D01*
X820557Y166430D02*
X815203Y166430D01*
X815203Y168824D02*
X820557Y168824D01*
X825363Y159248D02*
X830717Y159248D01*
X825363Y159248D02*
X825363Y170952D01*
X830717Y170952D01*
X830717Y159248D01*
X830717Y161642D02*
X825363Y161642D01*
X825363Y164036D02*
X830717Y164036D01*
X830717Y166430D02*
X825363Y166430D01*
X825363Y168824D02*
X830717Y168824D01*
D13*
X810260Y165100D03*
X835660Y165100D03*
D14*
X1060084Y333441D02*
X1060084Y339049D01*
X1071788Y339049D01*
X1071788Y333441D01*
X1060084Y333441D01*
X1060084Y335835D02*
X1071788Y335835D01*
X1071788Y338229D02*
X1060084Y338229D01*
X1060084Y328635D02*
X1060084Y323027D01*
X1060084Y328635D02*
X1071788Y328635D01*
X1071788Y323027D01*
X1060084Y323027D01*
X1060084Y325421D02*
X1071788Y325421D01*
X1071788Y327815D02*
X1060084Y327815D01*
X917636Y11090D02*
X912028Y11090D01*
X912028Y22794D01*
X917636Y22794D01*
X917636Y11090D01*
X917636Y13484D02*
X912028Y13484D01*
X912028Y15878D02*
X917636Y15878D01*
X917636Y18272D02*
X912028Y18272D01*
X912028Y20666D02*
X917636Y20666D01*
X922442Y11090D02*
X928050Y11090D01*
X922442Y11090D02*
X922442Y22794D01*
X928050Y22794D01*
X928050Y11090D01*
X928050Y13484D02*
X922442Y13484D01*
X922442Y15878D02*
X928050Y15878D01*
X928050Y18272D02*
X922442Y18272D01*
X922442Y20666D02*
X928050Y20666D01*
D15*
X822960Y12700D03*
X1102360Y368300D03*
D13*
X861060Y368300D03*
X886460Y368300D03*
D11*
X1183640Y25400D03*
X1513840Y25400D03*
X1513840Y355600D03*
X1183640Y355600D03*
D12*
X1211580Y254000D03*
X1257300Y254000D03*
D13*
X1526540Y241300D03*
X1526540Y215900D03*
X1526540Y190500D03*
X1526540Y165100D03*
X1170940Y88900D03*
X1170940Y114300D03*
D14*
X1201283Y159248D02*
X1206637Y159248D01*
X1201283Y159248D02*
X1201283Y170952D01*
X1206637Y170952D01*
X1206637Y159248D01*
X1206637Y161642D02*
X1201283Y161642D01*
X1201283Y164036D02*
X1206637Y164036D01*
X1206637Y166430D02*
X1201283Y166430D01*
X1201283Y168824D02*
X1206637Y168824D01*
X1211443Y159248D02*
X1216797Y159248D01*
X1211443Y159248D02*
X1211443Y170952D01*
X1216797Y170952D01*
X1216797Y159248D01*
X1216797Y161642D02*
X1211443Y161642D01*
X1211443Y164036D02*
X1216797Y164036D01*
X1216797Y166430D02*
X1211443Y166430D01*
X1211443Y168824D02*
X1216797Y168824D01*
D13*
X1196340Y165100D03*
X1221740Y165100D03*
D14*
X1446164Y333441D02*
X1446164Y339049D01*
X1457868Y339049D01*
X1457868Y333441D01*
X1446164Y333441D01*
X1446164Y335835D02*
X1457868Y335835D01*
X1457868Y338229D02*
X1446164Y338229D01*
X1446164Y328635D02*
X1446164Y323027D01*
X1446164Y328635D02*
X1457868Y328635D01*
X1457868Y323027D01*
X1446164Y323027D01*
X1446164Y325421D02*
X1457868Y325421D01*
X1457868Y327815D02*
X1446164Y327815D01*
X1303716Y11090D02*
X1298108Y11090D01*
X1298108Y22794D01*
X1303716Y22794D01*
X1303716Y11090D01*
X1303716Y13484D02*
X1298108Y13484D01*
X1298108Y15878D02*
X1303716Y15878D01*
X1303716Y18272D02*
X1298108Y18272D01*
X1298108Y20666D02*
X1303716Y20666D01*
X1308522Y11090D02*
X1314130Y11090D01*
X1308522Y11090D02*
X1308522Y22794D01*
X1314130Y22794D01*
X1314130Y11090D01*
X1314130Y13484D02*
X1308522Y13484D01*
X1308522Y15878D02*
X1314130Y15878D01*
X1314130Y18272D02*
X1308522Y18272D01*
X1308522Y20666D02*
X1314130Y20666D01*
D15*
X1209040Y12700D03*
X1488440Y368300D03*
D13*
X1247140Y368300D03*
X1272540Y368300D03*
D11*
X25400Y411480D03*
X355600Y411480D03*
X355600Y741680D03*
X25400Y741680D03*
D12*
X53340Y640080D03*
X99060Y640080D03*
D13*
X368300Y627380D03*
X368300Y601980D03*
X368300Y576580D03*
X368300Y551180D03*
X12700Y474980D03*
X12700Y500380D03*
D14*
X43043Y545328D02*
X48397Y545328D01*
X43043Y545328D02*
X43043Y557032D01*
X48397Y557032D01*
X48397Y545328D01*
X48397Y547722D02*
X43043Y547722D01*
X43043Y550116D02*
X48397Y550116D01*
X48397Y552510D02*
X43043Y552510D01*
X43043Y554904D02*
X48397Y554904D01*
X53203Y545328D02*
X58557Y545328D01*
X53203Y545328D02*
X53203Y557032D01*
X58557Y557032D01*
X58557Y545328D01*
X58557Y547722D02*
X53203Y547722D01*
X53203Y550116D02*
X58557Y550116D01*
X58557Y552510D02*
X53203Y552510D01*
X53203Y554904D02*
X58557Y554904D01*
D13*
X38100Y551180D03*
X63500Y551180D03*
D14*
X287924Y719521D02*
X287924Y725129D01*
X299628Y725129D01*
X299628Y719521D01*
X287924Y719521D01*
X287924Y721915D02*
X299628Y721915D01*
X299628Y724309D02*
X287924Y724309D01*
X287924Y714715D02*
X287924Y709107D01*
X287924Y714715D02*
X299628Y714715D01*
X299628Y709107D01*
X287924Y709107D01*
X287924Y711501D02*
X299628Y711501D01*
X299628Y713895D02*
X287924Y713895D01*
X145476Y397170D02*
X139868Y397170D01*
X139868Y408874D01*
X145476Y408874D01*
X145476Y397170D01*
X145476Y399564D02*
X139868Y399564D01*
X139868Y401958D02*
X145476Y401958D01*
X145476Y404352D02*
X139868Y404352D01*
X139868Y406746D02*
X145476Y406746D01*
X150282Y397170D02*
X155890Y397170D01*
X150282Y397170D02*
X150282Y408874D01*
X155890Y408874D01*
X155890Y397170D01*
X155890Y399564D02*
X150282Y399564D01*
X150282Y401958D02*
X155890Y401958D01*
X155890Y404352D02*
X150282Y404352D01*
X150282Y406746D02*
X155890Y406746D01*
D15*
X50800Y398780D03*
X330200Y754380D03*
D13*
X88900Y754380D03*
X114300Y754380D03*
D11*
X411480Y411480D03*
X741680Y411480D03*
X741680Y741680D03*
X411480Y741680D03*
D12*
X439420Y640080D03*
X485140Y640080D03*
D13*
X754380Y627380D03*
X754380Y601980D03*
X754380Y576580D03*
X754380Y551180D03*
X398780Y474980D03*
X398780Y500380D03*
D14*
X429123Y545328D02*
X434477Y545328D01*
X429123Y545328D02*
X429123Y557032D01*
X434477Y557032D01*
X434477Y545328D01*
X434477Y547722D02*
X429123Y547722D01*
X429123Y550116D02*
X434477Y550116D01*
X434477Y552510D02*
X429123Y552510D01*
X429123Y554904D02*
X434477Y554904D01*
X439283Y545328D02*
X444637Y545328D01*
X439283Y545328D02*
X439283Y557032D01*
X444637Y557032D01*
X444637Y545328D01*
X444637Y547722D02*
X439283Y547722D01*
X439283Y550116D02*
X444637Y550116D01*
X444637Y552510D02*
X439283Y552510D01*
X439283Y554904D02*
X444637Y554904D01*
D13*
X424180Y551180D03*
X449580Y551180D03*
D14*
X674004Y719521D02*
X674004Y725129D01*
X685708Y725129D01*
X685708Y719521D01*
X674004Y719521D01*
X674004Y721915D02*
X685708Y721915D01*
X685708Y724309D02*
X674004Y724309D01*
X674004Y714715D02*
X674004Y709107D01*
X674004Y714715D02*
X685708Y714715D01*
X685708Y709107D01*
X674004Y709107D01*
X674004Y711501D02*
X685708Y711501D01*
X685708Y713895D02*
X674004Y713895D01*
X531556Y397170D02*
X525948Y397170D01*
X525948Y408874D01*
X531556Y408874D01*
X531556Y397170D01*
X531556Y399564D02*
X525948Y399564D01*
X525948Y401958D02*
X531556Y401958D01*
X531556Y404352D02*
X525948Y404352D01*
X525948Y406746D02*
X531556Y406746D01*
X536362Y397170D02*
X541970Y397170D01*
X536362Y397170D02*
X536362Y408874D01*
X541970Y408874D01*
X541970Y397170D01*
X541970Y399564D02*
X536362Y399564D01*
X536362Y401958D02*
X541970Y401958D01*
X541970Y404352D02*
X536362Y404352D01*
X536362Y406746D02*
X541970Y406746D01*
D15*
X436880Y398780D03*
X716280Y754380D03*
D13*
X474980Y754380D03*
X500380Y754380D03*
D11*
X797560Y411480D03*
X1127760Y411480D03*
X1127760Y741680D03*
X797560Y741680D03*
D12*
X825500Y640080D03*
X871220Y640080D03*
D13*
X1140460Y627380D03*
X1140460Y601980D03*
X1140460Y576580D03*
X1140460Y551180D03*
X784860Y474980D03*
X784860Y500380D03*
D14*
X815203Y545328D02*
X820557Y545328D01*
X815203Y545328D02*
X815203Y557032D01*
X820557Y557032D01*
X820557Y545328D01*
X820557Y547722D02*
X815203Y547722D01*
X815203Y550116D02*
X820557Y550116D01*
X820557Y552510D02*
X815203Y552510D01*
X815203Y554904D02*
X820557Y554904D01*
X825363Y545328D02*
X830717Y545328D01*
X825363Y545328D02*
X825363Y557032D01*
X830717Y557032D01*
X830717Y545328D01*
X830717Y547722D02*
X825363Y547722D01*
X825363Y550116D02*
X830717Y550116D01*
X830717Y552510D02*
X825363Y552510D01*
X825363Y554904D02*
X830717Y554904D01*
D13*
X810260Y551180D03*
X835660Y551180D03*
D14*
X1060084Y719521D02*
X1060084Y725129D01*
X1071788Y725129D01*
X1071788Y719521D01*
X1060084Y719521D01*
X1060084Y721915D02*
X1071788Y721915D01*
X1071788Y724309D02*
X1060084Y724309D01*
X1060084Y714715D02*
X1060084Y709107D01*
X1060084Y714715D02*
X1071788Y714715D01*
X1071788Y709107D01*
X1060084Y709107D01*
X1060084Y711501D02*
X1071788Y711501D01*
X1071788Y713895D02*
X1060084Y713895D01*
X917636Y397170D02*
X912028Y397170D01*
X912028Y408874D01*
X917636Y408874D01*
X917636Y397170D01*
X917636Y399564D02*
X912028Y399564D01*
X912028Y401958D02*
X917636Y401958D01*
X917636Y404352D02*
X912028Y404352D01*
X912028Y406746D02*
X917636Y406746D01*
X922442Y397170D02*
X928050Y397170D01*
X922442Y397170D02*
X922442Y408874D01*
X928050Y408874D01*
X928050Y397170D01*
X928050Y399564D02*
X922442Y399564D01*
X922442Y401958D02*
X928050Y401958D01*
X928050Y404352D02*
X922442Y404352D01*
X922442Y406746D02*
X928050Y406746D01*
D15*
X822960Y398780D03*
X1102360Y754380D03*
D13*
X861060Y754380D03*
X886460Y754380D03*
D11*
X1183640Y411480D03*
X1513840Y411480D03*
X1513840Y741680D03*
X1183640Y741680D03*
D12*
X1211580Y640080D03*
X1257300Y640080D03*
D13*
X1526540Y627380D03*
X1526540Y601980D03*
X1526540Y576580D03*
X1526540Y551180D03*
X1170940Y474980D03*
X1170940Y500380D03*
D14*
X1201283Y545328D02*
X1206637Y545328D01*
X1201283Y545328D02*
X1201283Y557032D01*
X1206637Y557032D01*
X1206637Y545328D01*
X1206637Y547722D02*
X1201283Y547722D01*
X1201283Y550116D02*
X1206637Y550116D01*
X1206637Y552510D02*
X1201283Y552510D01*
X1201283Y554904D02*
X1206637Y554904D01*
X1211443Y545328D02*
X1216797Y545328D01*
X1211443Y545328D02*
X1211443Y557032D01*
X1216797Y557032D01*
X1216797Y545328D01*
X1216797Y547722D02*
X1211443Y547722D01*
X1211443Y550116D02*
X1216797Y550116D01*
X1216797Y552510D02*
X1211443Y552510D01*
X1211443Y554904D02*
X1216797Y554904D01*
D13*
X1196340Y551180D03*
X1221740Y551180D03*
D14*
X1446164Y719521D02*
X1446164Y725129D01*
X1457868Y725129D01*
X1457868Y719521D01*
X1446164Y719521D01*
X1446164Y721915D02*
X1457868Y721915D01*
X1457868Y724309D02*
X1446164Y724309D01*
X1446164Y714715D02*
X1446164Y709107D01*
X1446164Y714715D02*
X1457868Y714715D01*
X1457868Y709107D01*
X1446164Y709107D01*
X1446164Y711501D02*
X1457868Y711501D01*
X1457868Y713895D02*
X1446164Y713895D01*
X1303716Y397170D02*
X1298108Y397170D01*
X1298108Y408874D01*
X1303716Y408874D01*
X1303716Y397170D01*
X1303716Y399564D02*
X1298108Y399564D01*
X1298108Y401958D02*
X1303716Y401958D01*
X1303716Y404352D02*
X1298108Y404352D01*
X1298108Y406746D02*
X1303716Y406746D01*
X1308522Y397170D02*
X1314130Y397170D01*
X1308522Y397170D02*
X1308522Y408874D01*
X1314130Y408874D01*
X1314130Y397170D01*
X1314130Y399564D02*
X1308522Y399564D01*
X1308522Y401958D02*
X1314130Y401958D01*
X1314130Y404352D02*
X1308522Y404352D01*
X1308522Y406746D02*
X1314130Y406746D01*
D15*
X1209040Y398780D03*
X1488440Y754380D03*
D13*
X1247140Y754380D03*
X1272540Y754380D03*
D11*
X25400Y797560D03*
X355600Y797560D03*
X355600Y1127760D03*
X25400Y1127760D03*
D12*
X53340Y1026160D03*
X99060Y1026160D03*
D13*
X368300Y1013460D03*
X368300Y988060D03*
X368300Y962660D03*
X368300Y937260D03*
X12700Y861060D03*
X12700Y886460D03*
D14*
X43043Y931408D02*
X48397Y931408D01*
X43043Y931408D02*
X43043Y943112D01*
X48397Y943112D01*
X48397Y931408D01*
X48397Y933802D02*
X43043Y933802D01*
X43043Y936196D02*
X48397Y936196D01*
X48397Y938590D02*
X43043Y938590D01*
X43043Y940984D02*
X48397Y940984D01*
X53203Y931408D02*
X58557Y931408D01*
X53203Y931408D02*
X53203Y943112D01*
X58557Y943112D01*
X58557Y931408D01*
X58557Y933802D02*
X53203Y933802D01*
X53203Y936196D02*
X58557Y936196D01*
X58557Y938590D02*
X53203Y938590D01*
X53203Y940984D02*
X58557Y940984D01*
D13*
X38100Y937260D03*
X63500Y937260D03*
D14*
X287924Y1105601D02*
X287924Y1111209D01*
X299628Y1111209D01*
X299628Y1105601D01*
X287924Y1105601D01*
X287924Y1107995D02*
X299628Y1107995D01*
X299628Y1110389D02*
X287924Y1110389D01*
X287924Y1100795D02*
X287924Y1095187D01*
X287924Y1100795D02*
X299628Y1100795D01*
X299628Y1095187D01*
X287924Y1095187D01*
X287924Y1097581D02*
X299628Y1097581D01*
X299628Y1099975D02*
X287924Y1099975D01*
X145476Y783250D02*
X139868Y783250D01*
X139868Y794954D01*
X145476Y794954D01*
X145476Y783250D01*
X145476Y785644D02*
X139868Y785644D01*
X139868Y788038D02*
X145476Y788038D01*
X145476Y790432D02*
X139868Y790432D01*
X139868Y792826D02*
X145476Y792826D01*
X150282Y783250D02*
X155890Y783250D01*
X150282Y783250D02*
X150282Y794954D01*
X155890Y794954D01*
X155890Y783250D01*
X155890Y785644D02*
X150282Y785644D01*
X150282Y788038D02*
X155890Y788038D01*
X155890Y790432D02*
X150282Y790432D01*
X150282Y792826D02*
X155890Y792826D01*
D15*
X50800Y784860D03*
X330200Y1140460D03*
D13*
X88900Y1140460D03*
X114300Y1140460D03*
D11*
X411480Y797560D03*
X741680Y797560D03*
X741680Y1127760D03*
X411480Y1127760D03*
D12*
X439420Y1026160D03*
X485140Y1026160D03*
D13*
X754380Y1013460D03*
X754380Y988060D03*
X754380Y962660D03*
X754380Y937260D03*
X398780Y861060D03*
X398780Y886460D03*
D14*
X429123Y931408D02*
X434477Y931408D01*
X429123Y931408D02*
X429123Y943112D01*
X434477Y943112D01*
X434477Y931408D01*
X434477Y933802D02*
X429123Y933802D01*
X429123Y936196D02*
X434477Y936196D01*
X434477Y938590D02*
X429123Y938590D01*
X429123Y940984D02*
X434477Y940984D01*
X439283Y931408D02*
X444637Y931408D01*
X439283Y931408D02*
X439283Y943112D01*
X444637Y943112D01*
X444637Y931408D01*
X444637Y933802D02*
X439283Y933802D01*
X439283Y936196D02*
X444637Y936196D01*
X444637Y938590D02*
X439283Y938590D01*
X439283Y940984D02*
X444637Y940984D01*
D13*
X424180Y937260D03*
X449580Y937260D03*
D14*
X674004Y1105601D02*
X674004Y1111209D01*
X685708Y1111209D01*
X685708Y1105601D01*
X674004Y1105601D01*
X674004Y1107995D02*
X685708Y1107995D01*
X685708Y1110389D02*
X674004Y1110389D01*
X674004Y1100795D02*
X674004Y1095187D01*
X674004Y1100795D02*
X685708Y1100795D01*
X685708Y1095187D01*
X674004Y1095187D01*
X674004Y1097581D02*
X685708Y1097581D01*
X685708Y1099975D02*
X674004Y1099975D01*
X531556Y783250D02*
X525948Y783250D01*
X525948Y794954D01*
X531556Y794954D01*
X531556Y783250D01*
X531556Y785644D02*
X525948Y785644D01*
X525948Y788038D02*
X531556Y788038D01*
X531556Y790432D02*
X525948Y790432D01*
X525948Y792826D02*
X531556Y792826D01*
X536362Y783250D02*
X541970Y783250D01*
X536362Y783250D02*
X536362Y794954D01*
X541970Y794954D01*
X541970Y783250D01*
X541970Y785644D02*
X536362Y785644D01*
X536362Y788038D02*
X541970Y788038D01*
X541970Y790432D02*
X536362Y790432D01*
X536362Y792826D02*
X541970Y792826D01*
D15*
X436880Y784860D03*
X716280Y1140460D03*
D13*
X474980Y1140460D03*
X500380Y1140460D03*
D11*
X797560Y797560D03*
X1127760Y797560D03*
X1127760Y1127760D03*
X797560Y1127760D03*
D12*
X825500Y1026160D03*
X871220Y1026160D03*
D13*
X1140460Y1013460D03*
X1140460Y988060D03*
X1140460Y962660D03*
X1140460Y937260D03*
X784860Y861060D03*
X784860Y886460D03*
D14*
X815203Y931408D02*
X820557Y931408D01*
X815203Y931408D02*
X815203Y943112D01*
X820557Y943112D01*
X820557Y931408D01*
X820557Y933802D02*
X815203Y933802D01*
X815203Y936196D02*
X820557Y936196D01*
X820557Y938590D02*
X815203Y938590D01*
X815203Y940984D02*
X820557Y940984D01*
X825363Y931408D02*
X830717Y931408D01*
X825363Y931408D02*
X825363Y943112D01*
X830717Y943112D01*
X830717Y931408D01*
X830717Y933802D02*
X825363Y933802D01*
X825363Y936196D02*
X830717Y936196D01*
X830717Y938590D02*
X825363Y938590D01*
X825363Y940984D02*
X830717Y940984D01*
D13*
X810260Y937260D03*
X835660Y937260D03*
D14*
X1060084Y1105601D02*
X1060084Y1111209D01*
X1071788Y1111209D01*
X1071788Y1105601D01*
X1060084Y1105601D01*
X1060084Y1107995D02*
X1071788Y1107995D01*
X1071788Y1110389D02*
X1060084Y1110389D01*
X1060084Y1100795D02*
X1060084Y1095187D01*
X1060084Y1100795D02*
X1071788Y1100795D01*
X1071788Y1095187D01*
X1060084Y1095187D01*
X1060084Y1097581D02*
X1071788Y1097581D01*
X1071788Y1099975D02*
X1060084Y1099975D01*
X917636Y783250D02*
X912028Y783250D01*
X912028Y794954D01*
X917636Y794954D01*
X917636Y783250D01*
X917636Y785644D02*
X912028Y785644D01*
X912028Y788038D02*
X917636Y788038D01*
X917636Y790432D02*
X912028Y790432D01*
X912028Y792826D02*
X917636Y792826D01*
X922442Y783250D02*
X928050Y783250D01*
X922442Y783250D02*
X922442Y794954D01*
X928050Y794954D01*
X928050Y783250D01*
X928050Y785644D02*
X922442Y785644D01*
X922442Y788038D02*
X928050Y788038D01*
X928050Y790432D02*
X922442Y790432D01*
X922442Y792826D02*
X928050Y792826D01*
D15*
X822960Y784860D03*
X1102360Y1140460D03*
D13*
X861060Y1140460D03*
X886460Y1140460D03*
D11*
X1183640Y797560D03*
X1513840Y797560D03*
X1513840Y1127760D03*
X1183640Y1127760D03*
D12*
X1211580Y1026160D03*
X1257300Y1026160D03*
D13*
X1526540Y1013460D03*
X1526540Y988060D03*
X1526540Y962660D03*
X1526540Y937260D03*
X1170940Y861060D03*
X1170940Y886460D03*
D14*
X1201283Y931408D02*
X1206637Y931408D01*
X1201283Y931408D02*
X1201283Y943112D01*
X1206637Y943112D01*
X1206637Y931408D01*
X1206637Y933802D02*
X1201283Y933802D01*
X1201283Y936196D02*
X1206637Y936196D01*
X1206637Y938590D02*
X1201283Y938590D01*
X1201283Y940984D02*
X1206637Y940984D01*
X1211443Y931408D02*
X1216797Y931408D01*
X1211443Y931408D02*
X1211443Y943112D01*
X1216797Y943112D01*
X1216797Y931408D01*
X1216797Y933802D02*
X1211443Y933802D01*
X1211443Y936196D02*
X1216797Y936196D01*
X1216797Y938590D02*
X1211443Y938590D01*
X1211443Y940984D02*
X1216797Y940984D01*
D13*
X1196340Y937260D03*
X1221740Y937260D03*
D14*
X1446164Y1105601D02*
X1446164Y1111209D01*
X1457868Y1111209D01*
X1457868Y1105601D01*
X1446164Y1105601D01*
X1446164Y1107995D02*
X1457868Y1107995D01*
X1457868Y1110389D02*
X1446164Y1110389D01*
X1446164Y1100795D02*
X1446164Y1095187D01*
X1446164Y1100795D02*
X1457868Y1100795D01*
X1457868Y1095187D01*
X1446164Y1095187D01*
X1446164Y1097581D02*
X1457868Y1097581D01*
X1457868Y1099975D02*
X1446164Y1099975D01*
X1303716Y783250D02*
X1298108Y783250D01*
X1298108Y794954D01*
X1303716Y794954D01*
X1303716Y783250D01*
X1303716Y785644D02*
X1298108Y785644D01*
X1298108Y788038D02*
X1303716Y788038D01*
X1303716Y790432D02*
X1298108Y790432D01*
X1298108Y792826D02*
X1303716Y792826D01*
X1308522Y783250D02*
X1314130Y783250D01*
X1308522Y783250D02*
X1308522Y794954D01*
X1314130Y794954D01*
X1314130Y783250D01*
X1314130Y785644D02*
X1308522Y785644D01*
X1308522Y788038D02*
X1314130Y788038D01*
X1314130Y790432D02*
X1308522Y790432D01*
X1308522Y792826D02*
X1314130Y792826D01*
D15*
X1209040Y784860D03*
X1488440Y1140460D03*
D13*
X1247140Y1140460D03*
X1272540Y1140460D03*
D16*
X-26238Y1126490D03*
X1565478Y1126490D03*
D17*
X-35293Y63500D02*
X-35290Y63722D01*
X-35282Y63944D01*
X-35268Y64166D01*
X-35249Y64388D01*
X-35225Y64608D01*
X-35195Y64829D01*
X-35160Y65048D01*
X-35119Y65267D01*
X-35073Y65484D01*
X-35022Y65700D01*
X-34965Y65915D01*
X-34903Y66129D01*
X-34836Y66340D01*
X-34764Y66551D01*
X-34686Y66759D01*
X-34604Y66965D01*
X-34516Y67169D01*
X-34424Y67372D01*
X-34326Y67571D01*
X-34224Y67768D01*
X-34117Y67963D01*
X-34005Y68155D01*
X-33888Y68344D01*
X-33767Y68531D01*
X-33641Y68714D01*
X-33511Y68894D01*
X-33376Y69071D01*
X-33238Y69244D01*
X-33095Y69414D01*
X-32947Y69581D01*
X-32796Y69744D01*
X-32641Y69903D01*
X-32482Y70058D01*
X-32319Y70209D01*
X-32152Y70357D01*
X-31982Y70500D01*
X-31809Y70638D01*
X-31632Y70773D01*
X-31452Y70903D01*
X-31269Y71029D01*
X-31082Y71150D01*
X-30893Y71267D01*
X-30701Y71379D01*
X-30506Y71486D01*
X-30309Y71588D01*
X-30110Y71686D01*
X-29907Y71778D01*
X-29703Y71866D01*
X-29497Y71948D01*
X-29289Y72026D01*
X-29078Y72098D01*
X-28867Y72165D01*
X-28653Y72227D01*
X-28438Y72284D01*
X-28222Y72335D01*
X-28005Y72381D01*
X-27786Y72422D01*
X-27567Y72457D01*
X-27346Y72487D01*
X-27126Y72511D01*
X-26904Y72530D01*
X-26682Y72544D01*
X-26460Y72552D01*
X-26238Y72555D01*
X-26016Y72552D01*
X-25794Y72544D01*
X-25572Y72530D01*
X-25350Y72511D01*
X-25130Y72487D01*
X-24909Y72457D01*
X-24690Y72422D01*
X-24471Y72381D01*
X-24254Y72335D01*
X-24038Y72284D01*
X-23823Y72227D01*
X-23609Y72165D01*
X-23398Y72098D01*
X-23187Y72026D01*
X-22979Y71948D01*
X-22773Y71866D01*
X-22569Y71778D01*
X-22366Y71686D01*
X-22167Y71588D01*
X-21970Y71486D01*
X-21775Y71379D01*
X-21583Y71267D01*
X-21394Y71150D01*
X-21207Y71029D01*
X-21024Y70903D01*
X-20844Y70773D01*
X-20667Y70638D01*
X-20494Y70500D01*
X-20324Y70357D01*
X-20157Y70209D01*
X-19994Y70058D01*
X-19835Y69903D01*
X-19680Y69744D01*
X-19529Y69581D01*
X-19381Y69414D01*
X-19238Y69244D01*
X-19100Y69071D01*
X-18965Y68894D01*
X-18835Y68714D01*
X-18709Y68531D01*
X-18588Y68344D01*
X-18471Y68155D01*
X-18359Y67963D01*
X-18252Y67768D01*
X-18150Y67571D01*
X-18052Y67372D01*
X-17960Y67169D01*
X-17872Y66965D01*
X-17790Y66759D01*
X-17712Y66551D01*
X-17640Y66340D01*
X-17573Y66129D01*
X-17511Y65915D01*
X-17454Y65700D01*
X-17403Y65484D01*
X-17357Y65267D01*
X-17316Y65048D01*
X-17281Y64829D01*
X-17251Y64608D01*
X-17227Y64388D01*
X-17208Y64166D01*
X-17194Y63944D01*
X-17186Y63722D01*
X-17183Y63500D01*
X-17186Y63278D01*
X-17194Y63056D01*
X-17208Y62834D01*
X-17227Y62612D01*
X-17251Y62392D01*
X-17281Y62171D01*
X-17316Y61952D01*
X-17357Y61733D01*
X-17403Y61516D01*
X-17454Y61300D01*
X-17511Y61085D01*
X-17573Y60871D01*
X-17640Y60660D01*
X-17712Y60449D01*
X-17790Y60241D01*
X-17872Y60035D01*
X-17960Y59831D01*
X-18052Y59628D01*
X-18150Y59429D01*
X-18252Y59232D01*
X-18359Y59037D01*
X-18471Y58845D01*
X-18588Y58656D01*
X-18709Y58469D01*
X-18835Y58286D01*
X-18965Y58106D01*
X-19100Y57929D01*
X-19238Y57756D01*
X-19381Y57586D01*
X-19529Y57419D01*
X-19680Y57256D01*
X-19835Y57097D01*
X-19994Y56942D01*
X-20157Y56791D01*
X-20324Y56643D01*
X-20494Y56500D01*
X-20667Y56362D01*
X-20844Y56227D01*
X-21024Y56097D01*
X-21207Y55971D01*
X-21394Y55850D01*
X-21583Y55733D01*
X-21775Y55621D01*
X-21970Y55514D01*
X-22167Y55412D01*
X-22366Y55314D01*
X-22569Y55222D01*
X-22773Y55134D01*
X-22979Y55052D01*
X-23187Y54974D01*
X-23398Y54902D01*
X-23609Y54835D01*
X-23823Y54773D01*
X-24038Y54716D01*
X-24254Y54665D01*
X-24471Y54619D01*
X-24690Y54578D01*
X-24909Y54543D01*
X-25130Y54513D01*
X-25350Y54489D01*
X-25572Y54470D01*
X-25794Y54456D01*
X-26016Y54448D01*
X-26238Y54445D01*
X-26460Y54448D01*
X-26682Y54456D01*
X-26904Y54470D01*
X-27126Y54489D01*
X-27346Y54513D01*
X-27567Y54543D01*
X-27786Y54578D01*
X-28005Y54619D01*
X-28222Y54665D01*
X-28438Y54716D01*
X-28653Y54773D01*
X-28867Y54835D01*
X-29078Y54902D01*
X-29289Y54974D01*
X-29497Y55052D01*
X-29703Y55134D01*
X-29907Y55222D01*
X-30110Y55314D01*
X-30309Y55412D01*
X-30506Y55514D01*
X-30701Y55621D01*
X-30893Y55733D01*
X-31082Y55850D01*
X-31269Y55971D01*
X-31452Y56097D01*
X-31632Y56227D01*
X-31809Y56362D01*
X-31982Y56500D01*
X-32152Y56643D01*
X-32319Y56791D01*
X-32482Y56942D01*
X-32641Y57097D01*
X-32796Y57256D01*
X-32947Y57419D01*
X-33095Y57586D01*
X-33238Y57756D01*
X-33376Y57929D01*
X-33511Y58106D01*
X-33641Y58286D01*
X-33767Y58469D01*
X-33888Y58656D01*
X-34005Y58845D01*
X-34117Y59037D01*
X-34224Y59232D01*
X-34326Y59429D01*
X-34424Y59628D01*
X-34516Y59831D01*
X-34604Y60035D01*
X-34686Y60241D01*
X-34764Y60449D01*
X-34836Y60660D01*
X-34903Y60871D01*
X-34965Y61085D01*
X-35022Y61300D01*
X-35073Y61516D01*
X-35119Y61733D01*
X-35160Y61952D01*
X-35195Y62171D01*
X-35225Y62392D01*
X-35249Y62612D01*
X-35268Y62834D01*
X-35282Y63056D01*
X-35290Y63278D01*
X-35293Y63500D01*
D18*
X-26238Y63500D03*
M02*
