M48
;GenerationSoftware,Autodesk,EAGLE,9.6.2*%
;CreationDate,2023-10-19T20:17:43Z*%
FMAT,2
ICI,OFF
METRIC,TZ,000.000
T5C0.305
T4C0.350
T3C1.016
T2C2.032
T1C3.302
%
G90
M71
T1
X35560Y41148
X2540Y41148
X79756Y74168
X2540Y2540
X35560Y2540
X35560Y35560
X2540Y35560
X112776Y74168
X112776Y41148
X41148Y2540
X74168Y2540
X74168Y35560
X41148Y35560
X79756Y41148
X35560Y74168
X79756Y2540
X112776Y2540
X112776Y35560
X79756Y35560
X41148Y74168
X74168Y74168
X118364Y2540
X151384Y2540
X151384Y35560
X118364Y35560
X74168Y41148
X118364Y112776
X151384Y112776
X151384Y79756
X118364Y79756
X41148Y41148
X79756Y112776
X112776Y112776
X112776Y79756
X79756Y79756
X2540Y74168
X35560Y112776
X41148Y112776
X74168Y112776
X74168Y79756
X41148Y79756
X2540Y112776
X35560Y79756
X2540Y79756
X118364Y74168
X151384Y74168
X151384Y41148
X118364Y41148
T2
X125730Y25400
X5334Y25400
X9906Y25400
X43942Y25400
X48514Y25400
X82550Y25400
X87122Y25400
X121158Y102616
X87122Y102616
X48514Y102616
X121158Y64008
X9906Y102616
X43942Y102616
X48514Y64008
X82550Y102616
X43942Y64008
X5334Y102616
X87122Y64008
X121158Y25400
X82550Y64008
X9906Y64008
X5334Y64008
X125730Y64008
X125730Y102616
T3
X114046Y16510
X78486Y8890
X78486Y11430
X81026Y16510
X83566Y16510
X86106Y36830
X88646Y36830
X152654Y24130
X152654Y21590
X152654Y19050
X152654Y16510
X117094Y8890
X117094Y11430
X119634Y16510
X122174Y16510
X124714Y36830
X127254Y36830
X36830Y62738
X36830Y60198
X36830Y57658
X36830Y55118
X1270Y47498
X1270Y50038
X3810Y55118
X6350Y55118
X8890Y75438
X11430Y75438
X75438Y62738
X75438Y60198
X75438Y57658
X75438Y55118
X39878Y47498
X39878Y50038
X42418Y55118
X44958Y55118
X47498Y75438
X127254Y114046
X50038Y75438
X114046Y62738
X114046Y60198
X114046Y57658
X114046Y55118
X78486Y47498
X78486Y50038
X81026Y55118
X83566Y55118
X86106Y75438
X88646Y75438
X152654Y62738
X152654Y60198
X152654Y57658
X152654Y55118
X117094Y47498
X117094Y50038
X122174Y55118
X124714Y75438
X127254Y75438
X36830Y101346
X36830Y98806
X36830Y96266
X36830Y93726
X1270Y86106
X1270Y88646
X3810Y93726
X6350Y93726
X8890Y114046
X11430Y114046
X75438Y101346
X75438Y98806
X75438Y96266
X75438Y93726
X39878Y86106
X39878Y88646
X42418Y93726
X44958Y93726
X47498Y114046
X50038Y114046
X114046Y101346
X114046Y98806
X114046Y96266
X114046Y93726
X78486Y86106
X78486Y88646
X81026Y93726
X83566Y93726
X86106Y114046
X88646Y114046
X152654Y101346
X152654Y98806
X152654Y96266
X152654Y93726
X117094Y86106
X117094Y88646
X119634Y93726
X122174Y93726
X124714Y114046
X119634Y55118
X36830Y24130
X36830Y21590
X36830Y19050
X36830Y16510
X1270Y8890
X1270Y11430
X3810Y16510
X6350Y16510
X8890Y36830
X11430Y36830
X75438Y24130
X75438Y21590
X75438Y19050
X75438Y16510
X39878Y8890
X39878Y11430
X42418Y16510
X44958Y16510
X47498Y36830
X50038Y36830
X114046Y24130
X114046Y21590
X114046Y19050
T4
X138684Y5080
X22860Y44958
X25400Y44958
X25400Y46228
X20320Y46228
X20320Y43688
X22860Y43688
X25400Y43688
X22860Y46228
X100076Y44958
X102616Y44958
X102616Y3810
X100076Y3810
X97536Y3810
X97536Y6350
X100076Y6350
X102616Y6350
X102616Y7620
X97536Y7620
X64008Y3810
X61468Y3810
X58928Y3810
X58928Y6350
X61468Y6350
X64008Y6350
X64008Y7620
X58928Y7620
X58928Y5080
X61468Y5080
X64008Y5080
X61468Y7620
X97536Y5080
X100076Y5080
X102616Y5080
X100076Y7620
X102616Y46228
X97536Y46228
X64008Y42418
X25400Y3810
X22860Y3810
X20320Y3810
X22860Y6350
X25400Y6350
X25400Y7620
X20320Y7620
X20320Y5080
X22860Y5080
X25400Y5080
X22860Y7620
X61468Y42418
X58928Y42418
X141224Y3810
X138684Y3810
X136144Y3810
X136144Y6350
X138684Y6350
X141224Y6350
X141224Y7620
X136144Y7620
X136144Y5080
X58928Y44958
X141224Y5080
X138684Y7620
X61468Y44958
X64008Y44958
X64008Y46228
X58928Y46228
X58928Y43688
X61468Y43688
X64008Y43688
X61468Y46228
X97536Y43688
X100076Y43688
X102616Y43688
X100076Y46228
X102616Y42418
X100076Y42418
X97536Y42418
X97536Y44958
X25400Y42418
X22860Y42418
X20320Y42418
X20320Y44958
X141224Y42418
X138684Y42418
X136144Y42418
X136144Y44958
X138684Y44958
X141224Y44958
X141224Y46228
X136144Y46228
X136144Y43688
X138684Y43688
X141224Y43688
X138684Y46228
X102616Y81026
X61468Y84836
X64008Y82296
X61468Y82296
X58928Y82296
X58928Y84836
X20320Y6350
X64008Y84836
X64008Y83566
X61468Y83566
X58928Y83566
X58928Y81026
X61468Y81026
X64008Y81026
X22860Y84836
X25400Y82296
X22860Y82296
X20320Y82296
X20320Y84836
X25400Y84836
X102616Y83566
X25400Y83566
X22860Y83566
X20320Y83566
X20320Y81026
X22860Y81026
X25400Y81026
X138684Y84836
X141224Y82296
X138684Y82296
X136144Y82296
X136144Y84836
X141224Y84836
X141224Y83566
X138684Y83566
X136144Y83566
X136144Y81026
X138684Y81026
X141224Y81026
X100076Y84836
X102616Y82296
X100076Y82296
X97536Y82296
X97536Y84836
X102616Y84836
X100076Y83566
X97536Y83566
X97536Y81026
X100076Y81026
T5
X20137Y63962
X20874Y63957
X20884Y63193
X20109Y63190
X31115Y70358
X11171Y40317
X15679Y42136
X29390Y50584
X51034Y60320
X57173Y55408
X58435Y57810
X60782Y55240
X66144Y64859
X68293Y64648
X60096Y70366
X58991Y70371
X68326Y74168
X43899Y60218
X46096Y58290
X59596Y73073
X63429Y65390
X60762Y65382
X56916Y71128
X56182Y68626
X56159Y66086
X73817Y58755
X69431Y58821
X51661Y48677
X44074Y48804
X54546Y43439
X71077Y39395
X75979Y44044
X75811Y70978
X70274Y75522
X39609Y43790
X44562Y39393
X48623Y43442
X71641Y56825
X65773Y52197
X65829Y56711
X47940Y58323
X52271Y58273
X44940Y43127
X39152Y48765
X69756Y67541
X67031Y61460
X69535Y51069
X44559Y42088
X52578Y55118
X53343Y55108
X53350Y54313
X52560Y54343
X58745Y63962
X59482Y63957
X59492Y63193
X58717Y63190
X69723Y70358
X49779Y40317
X54287Y42136
X67998Y50584
X89642Y60320
X95781Y55408
X97043Y57810
X99390Y55240
X104752Y64859
X106901Y64648
X98704Y70366
X97599Y70371
X106934Y74168
X82507Y60218
X84704Y58290
X98204Y73073
X102037Y65390
X99370Y65382
X95524Y71128
X94790Y68626
X94767Y66086
X112425Y58755
X108039Y58821
X90269Y48677
X82682Y48804
X93154Y43439
X109685Y39395
X114587Y44044
X114419Y70978
X108882Y75522
X78217Y43790
X83170Y39393
X87231Y43442
X110249Y56825
X104381Y52197
X104437Y56711
X86548Y58323
X90879Y58273
X83548Y43127
X77760Y48765
X108364Y67541
X105639Y61460
X108143Y51069
X83167Y42088
X91186Y55118
X91951Y55108
X91958Y54313
X91168Y54343
X97353Y63962
X98090Y63957
X98100Y63193
X97325Y63190
X108331Y70358
X88387Y40317
X92895Y42136
X106606Y50584
X128250Y60320
X134389Y55408
X135651Y57810
X137998Y55240
X143360Y64859
X145509Y64648
X137312Y70366
X136208Y70371
X145542Y74168
X121115Y60218
X123312Y58290
X136812Y73073
X140645Y65390
X137978Y65382
X134132Y71128
X133398Y68626
X133375Y66086
X151033Y58755
X146647Y58821
X128877Y48677
X121290Y48804
X131763Y43439
X148293Y39395
X153195Y44044
X153027Y70978
X147490Y75522
X116825Y43790
X121778Y39393
X125839Y43442
X148857Y56825
X142989Y52197
X143045Y56711
X12426Y21712
X129487Y58273
X122156Y43127
X116368Y48765
X146972Y67541
X144247Y61460
X146751Y51069
X18565Y16800
X19827Y19202
X22174Y16632
X27536Y26251
X29685Y26040
X21488Y31758
X20384Y31763
X29718Y35560
X5291Y21610
X7488Y19682
X20988Y34465
X24821Y26782
X121775Y42088
X129794Y55118
X130559Y55108
X130566Y54313
X129776Y54343
X135961Y63962
X136698Y63957
X136708Y63193
X135933Y63190
X146939Y70358
X126995Y40317
X131503Y42136
X145214Y50584
X12426Y98928
X18565Y94016
X19827Y96418
X22174Y93848
X27536Y103467
X29685Y103256
X21488Y108974
X20384Y108979
X29718Y112776
X5291Y98826
X7488Y96898
X20988Y111681
X24821Y103998
X22154Y103990
X18308Y109736
X17574Y107234
X17551Y104694
X35209Y97363
X30823Y97429
X13053Y87285
X5466Y87412
X15938Y82047
X32469Y78003
X37371Y82652
X37203Y109586
X31666Y114130
X1001Y82398
X5954Y78001
X10015Y82050
X33033Y95433
X27165Y90805
X27221Y95319
X9332Y96931
X13663Y96881
X6332Y81735
X544Y87373
X31148Y106149
X28423Y100068
X30927Y89677
X22154Y26774
X18308Y32520
X17574Y30018
X17551Y27478
X35209Y20147
X30823Y20213
X13053Y10069
X5466Y10196
X15938Y4831
X32469Y787
X37371Y5436
X37203Y32370
X5951Y80696
X13970Y93726
X14735Y93716
X14742Y92921
X13952Y92951
X20137Y102570
X20874Y102565
X20884Y101801
X20109Y101798
X31115Y108966
X11171Y78925
X15679Y80744
X29390Y89192
X51034Y98928
X57173Y94016
X58435Y96418
X60782Y93848
X66144Y103467
X68293Y103256
X60096Y108974
X58991Y108979
X68326Y112776
X43899Y98826
X46096Y96898
X59596Y111681
X63429Y103998
X60762Y103990
X56916Y109736
X56182Y107234
X56159Y104694
X73817Y97363
X69431Y97429
X51661Y87285
X44074Y87412
X54546Y82047
X71077Y78003
X75979Y82652
X75811Y109586
X70274Y114130
X39609Y82398
X44562Y78001
X48623Y82050
X71641Y95433
X65773Y90805
X65829Y95319
X47940Y96931
X52271Y96881
X44940Y81735
X39152Y87373
X69756Y106149
X67031Y100068
X69535Y89677
X31666Y36914
X1001Y5182
X5954Y785
X10015Y4834
X33033Y18217
X27165Y13589
X27221Y18103
X9332Y19715
X13663Y19665
X6332Y4519
X544Y10157
X31148Y28933
X44559Y80696
X52578Y93726
X53343Y93716
X53350Y92921
X52560Y92951
X58745Y102570
X59482Y102565
X59492Y101801
X58717Y101798
X69723Y108966
X49779Y78925
X54287Y80744
X67998Y89192
X89642Y98928
X95781Y94016
X97043Y96418
X99390Y93848
X104752Y103467
X106901Y103256
X98704Y108974
X97599Y108979
X106934Y112776
X82507Y98826
X84704Y96898
X98204Y111681
X102037Y103998
X99370Y103990
X95524Y109736
X94790Y107234
X94767Y104694
X112425Y97363
X108039Y97429
X90269Y87285
X82682Y87412
X93154Y82047
X109685Y78003
X114587Y82652
X114419Y109586
X108882Y114130
X78217Y82398
X83170Y78001
X87231Y82050
X110249Y95433
X104381Y90805
X104437Y95319
X86548Y96931
X90879Y96881
X83548Y81735
X77760Y87373
X108364Y106149
X105639Y100068
X108143Y89677
X28423Y22852
X30927Y12461
X5951Y3480
X13970Y16510
X14735Y16500
X14742Y15705
X13952Y15735
X20137Y25354
X20874Y25349
X20884Y24585
X20109Y24582
X31115Y31750
X83167Y80696
X91186Y93726
X91951Y93716
X91958Y92921
X91168Y92951
X97353Y102570
X98090Y102565
X98100Y101801
X97325Y101798
X108331Y108966
X88387Y78925
X92895Y80744
X106606Y89192
X128250Y98928
X134389Y94016
X135651Y96418
X137998Y93848
X143360Y103467
X145509Y103256
X137312Y108974
X136208Y108979
X145542Y112776
X121115Y98826
X123312Y96898
X136812Y111681
X140645Y103998
X137978Y103990
X134132Y109736
X11171Y1709
X133375Y104694
X151033Y97363
X146647Y97429
X128877Y87285
X121290Y87412
X131763Y82047
X148293Y78003
X153195Y82652
X153027Y109586
X147490Y114130
X116825Y82398
X121778Y78001
X125839Y82050
X148857Y95433
X142989Y90805
X143045Y95319
X125156Y96931
X129487Y96881
X122156Y81735
X116368Y87373
X146972Y106149
X144247Y100068
X146751Y89677
X15679Y3528
X29390Y11976
X51034Y21712
X57173Y16800
X58435Y19202
X60782Y16632
X66144Y26251
X68293Y26040
X60096Y31758
X58991Y31763
X68326Y35560
X43899Y21610
X121775Y80696
X129794Y93726
X130559Y93716
X130566Y92921
X129776Y92951
X135961Y102570
X136698Y102565
X136708Y101801
X135933Y101798
X146939Y108966
X126995Y78925
X131503Y80744
X145214Y89192
X46096Y19682
X59596Y34465
X63429Y26782
X60762Y26774
X56916Y32520
X56182Y30018
X56159Y27478
X73817Y20147
X69431Y20213
X51661Y10069
X44074Y10196
X54546Y4831
X71077Y787
X75979Y5436
X75811Y32370
X70274Y36914
X39609Y5182
X44562Y785
X48623Y4834
X71641Y18217
X65773Y13589
X65829Y18103
X47940Y19715
X52271Y19665
X44940Y4519
X39152Y10157
X69756Y28933
X67031Y22852
X69535Y12461
X44559Y3480
X52578Y16510
X53343Y16500
X53350Y15705
X52560Y15735
X59482Y25349
X59492Y24585
X58717Y24582
X69723Y31750
X49779Y1709
X54287Y3528
X67998Y11976
X89642Y21712
X95781Y16800
X97043Y19202
X99390Y16632
X104752Y26251
X106901Y26040
X98704Y31758
X97599Y31763
X106934Y35560
X82507Y21610
X84704Y19682
X98204Y34465
X102037Y26782
X99370Y26774
X95524Y32520
X94790Y30018
X94767Y27478
X112425Y20147
X108039Y20213
X90269Y10069
X82682Y10196
X93154Y4831
X109685Y787
X114587Y5436
X114419Y32370
X108882Y36914
X78217Y5182
X83170Y785
X87231Y4834
X110249Y18217
X125156Y58323
X104381Y13589
X104437Y18103
X86548Y19715
X90879Y19665
X83548Y4519
X77760Y10157
X108364Y28933
X105639Y22852
X108143Y12461
X83167Y3480
X91186Y16510
X91951Y16500
X91958Y15705
X91168Y15735
X97353Y25354
X98090Y25349
X98100Y24585
X97325Y24582
X108331Y31750
X88387Y1709
X92895Y3528
X106606Y11976
X128250Y21712
X134389Y16800
X135651Y19202
X137998Y16632
X143360Y26251
X145509Y26040
X137312Y31758
X136208Y31763
X145542Y35560
X121115Y21610
X123312Y19682
X136812Y34465
X140645Y26782
X137978Y26774
X134132Y32520
X133398Y30018
X133375Y27478
X151033Y20147
X146647Y20213
X128877Y10069
X121290Y10196
X131763Y4831
X148293Y787
X153195Y5436
X153027Y32370
X147490Y36914
X116825Y5182
X121778Y785
X125839Y4834
X148857Y18217
X142989Y13589
X143045Y18103
X125156Y19715
X129487Y19665
X122156Y4519
X116368Y10157
X146972Y28933
X144247Y22852
X146751Y12461
X58745Y25354
X121775Y3480
X129794Y16510
X130559Y16500
X130566Y15705
X129776Y15735
X135961Y25354
X136698Y25349
X136708Y24585
X135933Y24582
X146939Y31750
X126995Y1709
X131503Y3528
X145214Y11976
X12426Y60320
X18565Y55408
X19827Y57810
X22174Y55240
X27536Y64859
X29685Y64648
X21488Y70366
X20384Y70371
X29718Y74168
X5291Y60218
X7488Y58290
X20988Y73073
X24821Y65390
X22154Y65382
X18308Y71128
X17574Y68626
X17551Y66086
X35209Y58755
X30823Y58821
X13053Y48677
X5466Y48804
X15938Y43439
X32469Y39395
X37371Y44044
X37203Y70978
X31666Y75522
X1001Y43790
X5954Y39393
X10015Y43442
X33033Y56825
X27165Y52197
X27221Y56711
X9332Y58323
X13663Y58273
X6332Y43127
X544Y48765
X31148Y67541
X28423Y61460
X30927Y51069
X5951Y42088
X13970Y55118
X14735Y55108
X14742Y54313
X13952Y54343
X133398Y107234
M30